<mxfile host="app.diagrams.net" modified="2021-09-23T15:31:45.796Z" agent="5.0 (Windows NT 10.0; Win64; x64) AppleWebKit/537.36 (KHTML, like Gecko) Chrome/93.0.4577.82 Safari/537.36" etag="Pi3Z2T2Xxy1bkPRHf6IQ" version="15.3.0" type="github">
  <diagram name="Page-1" id="5f0bae14-7c28-e335-631c-24af17079c00">
    <mxGraphModel dx="1021" dy="520" grid="1" gridSize="10" guides="1" tooltips="1" connect="1" arrows="1" fold="1" page="1" pageScale="1" pageWidth="1100" pageHeight="850" background="none" math="0" shadow="0">
      <root>
        <mxCell id="0" />
        <mxCell id="1" parent="0" />
        <mxCell id="uuffBCwRQU14lShZG_Nr-9" style="edgeStyle=orthogonalEdgeStyle;rounded=0;orthogonalLoop=1;jettySize=auto;html=1;exitX=0.5;exitY=0.5;exitDx=0;exitDy=0;exitPerimeter=0;" edge="1" parent="1" source="uuffBCwRQU14lShZG_Nr-2">
          <mxGeometry relative="1" as="geometry">
            <mxPoint x="200" y="190.58823529411768" as="targetPoint" />
          </mxGeometry>
        </mxCell>
        <mxCell id="uuffBCwRQU14lShZG_Nr-2" value="Professor" style="shape=umlActor;verticalLabelPosition=bottom;verticalAlign=top;html=1;outlineConnect=0;" vertex="1" parent="1">
          <mxGeometry x="100" y="160" width="30" height="60" as="geometry" />
        </mxCell>
        <mxCell id="uuffBCwRQU14lShZG_Nr-3" value="Interface WEB" style="swimlane;" vertex="1" parent="1">
          <mxGeometry x="200" y="50" width="540" height="360" as="geometry" />
        </mxCell>
        <mxCell id="uuffBCwRQU14lShZG_Nr-10" style="edgeStyle=orthogonalEdgeStyle;rounded=0;orthogonalLoop=1;jettySize=auto;html=1;exitX=1;exitY=0.5;exitDx=0;exitDy=0;entryX=0;entryY=0.5;entryDx=0;entryDy=0;" edge="1" parent="uuffBCwRQU14lShZG_Nr-3" source="uuffBCwRQU14lShZG_Nr-5" target="uuffBCwRQU14lShZG_Nr-6">
          <mxGeometry relative="1" as="geometry" />
        </mxCell>
        <mxCell id="uuffBCwRQU14lShZG_Nr-5" value="Cadastro de Professor" style="ellipse;whiteSpace=wrap;html=1;" vertex="1" parent="uuffBCwRQU14lShZG_Nr-3">
          <mxGeometry x="30" y="40" width="120" height="80" as="geometry" />
        </mxCell>
        <mxCell id="uuffBCwRQU14lShZG_Nr-11" style="edgeStyle=orthogonalEdgeStyle;rounded=0;orthogonalLoop=1;jettySize=auto;html=1;exitX=0;exitY=1;exitDx=0;exitDy=0;entryX=0.5;entryY=0;entryDx=0;entryDy=0;" edge="1" parent="uuffBCwRQU14lShZG_Nr-3" source="uuffBCwRQU14lShZG_Nr-6" target="uuffBCwRQU14lShZG_Nr-7">
          <mxGeometry relative="1" as="geometry" />
        </mxCell>
        <mxCell id="uuffBCwRQU14lShZG_Nr-12" style="edgeStyle=orthogonalEdgeStyle;rounded=0;orthogonalLoop=1;jettySize=auto;html=1;exitX=0.5;exitY=1;exitDx=0;exitDy=0;" edge="1" parent="uuffBCwRQU14lShZG_Nr-3" source="uuffBCwRQU14lShZG_Nr-6" target="uuffBCwRQU14lShZG_Nr-8">
          <mxGeometry relative="1" as="geometry" />
        </mxCell>
        <mxCell id="uuffBCwRQU14lShZG_Nr-19" style="edgeStyle=orthogonalEdgeStyle;rounded=0;orthogonalLoop=1;jettySize=auto;html=1;exitX=1;exitY=0.5;exitDx=0;exitDy=0;" edge="1" parent="uuffBCwRQU14lShZG_Nr-3" source="uuffBCwRQU14lShZG_Nr-6" target="uuffBCwRQU14lShZG_Nr-18">
          <mxGeometry relative="1" as="geometry" />
        </mxCell>
        <mxCell id="uuffBCwRQU14lShZG_Nr-6" value="Login" style="ellipse;whiteSpace=wrap;html=1;" vertex="1" parent="uuffBCwRQU14lShZG_Nr-3">
          <mxGeometry x="220" y="70" width="120" height="80" as="geometry" />
        </mxCell>
        <mxCell id="uuffBCwRQU14lShZG_Nr-7" value="CRUD Aluno" style="ellipse;whiteSpace=wrap;html=1;" vertex="1" parent="uuffBCwRQU14lShZG_Nr-3">
          <mxGeometry x="50" y="170" width="120" height="80" as="geometry" />
        </mxCell>
        <mxCell id="uuffBCwRQU14lShZG_Nr-23" value="" style="edgeStyle=orthogonalEdgeStyle;rounded=0;orthogonalLoop=1;jettySize=auto;html=1;" edge="1" parent="uuffBCwRQU14lShZG_Nr-3" source="uuffBCwRQU14lShZG_Nr-8" target="uuffBCwRQU14lShZG_Nr-20">
          <mxGeometry relative="1" as="geometry" />
        </mxCell>
        <mxCell id="uuffBCwRQU14lShZG_Nr-8" value="CRUD Treino" style="ellipse;whiteSpace=wrap;html=1;" vertex="1" parent="uuffBCwRQU14lShZG_Nr-3">
          <mxGeometry x="220" y="170" width="120" height="80" as="geometry" />
        </mxCell>
        <mxCell id="uuffBCwRQU14lShZG_Nr-13" value="Associar Aluno e treino" style="ellipse;whiteSpace=wrap;html=1;" vertex="1" parent="uuffBCwRQU14lShZG_Nr-3">
          <mxGeometry x="130" y="260" width="120" height="80" as="geometry" />
        </mxCell>
        <mxCell id="uuffBCwRQU14lShZG_Nr-22" value="" style="edgeStyle=orthogonalEdgeStyle;rounded=0;orthogonalLoop=1;jettySize=auto;html=1;" edge="1" parent="uuffBCwRQU14lShZG_Nr-3" source="uuffBCwRQU14lShZG_Nr-18" target="uuffBCwRQU14lShZG_Nr-20">
          <mxGeometry relative="1" as="geometry" />
        </mxCell>
        <mxCell id="uuffBCwRQU14lShZG_Nr-18" value="CRUD Exercícios" style="ellipse;whiteSpace=wrap;html=1;" vertex="1" parent="uuffBCwRQU14lShZG_Nr-3">
          <mxGeometry x="390" y="70" width="120" height="80" as="geometry" />
        </mxCell>
        <mxCell id="uuffBCwRQU14lShZG_Nr-20" value="Associar exercício e treino de acordo com nível" style="ellipse;whiteSpace=wrap;html=1;" vertex="1" parent="uuffBCwRQU14lShZG_Nr-3">
          <mxGeometry x="390" y="190" width="120" height="80" as="geometry" />
        </mxCell>
        <mxCell id="uuffBCwRQU14lShZG_Nr-16" style="edgeStyle=orthogonalEdgeStyle;rounded=0;orthogonalLoop=1;jettySize=auto;html=1;" edge="1" parent="1" source="uuffBCwRQU14lShZG_Nr-7">
          <mxGeometry relative="1" as="geometry">
            <mxPoint x="390" y="310" as="targetPoint" />
          </mxGeometry>
        </mxCell>
        <mxCell id="uuffBCwRQU14lShZG_Nr-17" style="edgeStyle=orthogonalEdgeStyle;rounded=0;orthogonalLoop=1;jettySize=auto;html=1;exitX=0;exitY=0.5;exitDx=0;exitDy=0;" edge="1" parent="1" source="uuffBCwRQU14lShZG_Nr-8">
          <mxGeometry relative="1" as="geometry">
            <mxPoint x="390" y="280" as="targetPoint" />
          </mxGeometry>
        </mxCell>
        <mxCell id="uuffBCwRQU14lShZG_Nr-34" style="edgeStyle=orthogonalEdgeStyle;rounded=0;orthogonalLoop=1;jettySize=auto;html=1;exitX=0.5;exitY=1;exitDx=0;exitDy=0;entryX=0.5;entryY=0;entryDx=0;entryDy=0;" edge="1" parent="1" source="uuffBCwRQU14lShZG_Nr-24" target="uuffBCwRQU14lShZG_Nr-33">
          <mxGeometry relative="1" as="geometry" />
        </mxCell>
        <mxCell id="uuffBCwRQU14lShZG_Nr-42" value="" style="edgeStyle=orthogonalEdgeStyle;rounded=0;orthogonalLoop=1;jettySize=auto;html=1;" edge="1" parent="1" source="uuffBCwRQU14lShZG_Nr-24">
          <mxGeometry relative="1" as="geometry">
            <mxPoint x="740" y="240" as="targetPoint" />
          </mxGeometry>
        </mxCell>
        <mxCell id="uuffBCwRQU14lShZG_Nr-24" value="API" style="swimlane;" vertex="1" parent="1">
          <mxGeometry x="900" y="55" width="390" height="370" as="geometry" />
        </mxCell>
        <mxCell id="uuffBCwRQU14lShZG_Nr-50" style="edgeStyle=orthogonalEdgeStyle;rounded=0;orthogonalLoop=1;jettySize=auto;html=1;exitX=0.5;exitY=1;exitDx=0;exitDy=0;entryX=1;entryY=0.5;entryDx=0;entryDy=0;" edge="1" parent="uuffBCwRQU14lShZG_Nr-24" source="uuffBCwRQU14lShZG_Nr-28" target="uuffBCwRQU14lShZG_Nr-29">
          <mxGeometry relative="1" as="geometry" />
        </mxCell>
        <mxCell id="uuffBCwRQU14lShZG_Nr-28" value="Verificar dados recebidos da interface" style="ellipse;whiteSpace=wrap;html=1;" vertex="1" parent="uuffBCwRQU14lShZG_Nr-24">
          <mxGeometry x="240" y="25" width="120" height="80" as="geometry" />
        </mxCell>
        <mxCell id="uuffBCwRQU14lShZG_Nr-51" style="edgeStyle=orthogonalEdgeStyle;rounded=0;orthogonalLoop=1;jettySize=auto;html=1;exitX=0.5;exitY=1;exitDx=0;exitDy=0;" edge="1" parent="uuffBCwRQU14lShZG_Nr-24" source="uuffBCwRQU14lShZG_Nr-29" target="uuffBCwRQU14lShZG_Nr-32">
          <mxGeometry relative="1" as="geometry" />
        </mxCell>
        <mxCell id="uuffBCwRQU14lShZG_Nr-52" style="edgeStyle=orthogonalEdgeStyle;rounded=0;orthogonalLoop=1;jettySize=auto;html=1;entryX=0.5;entryY=0;entryDx=0;entryDy=0;" edge="1" parent="uuffBCwRQU14lShZG_Nr-24" source="uuffBCwRQU14lShZG_Nr-29" target="uuffBCwRQU14lShZG_Nr-45">
          <mxGeometry relative="1" as="geometry" />
        </mxCell>
        <mxCell id="uuffBCwRQU14lShZG_Nr-29" value="Validar os dados&amp;nbsp;" style="ellipse;whiteSpace=wrap;html=1;" vertex="1" parent="uuffBCwRQU14lShZG_Nr-24">
          <mxGeometry x="135" y="95" width="120" height="80" as="geometry" />
        </mxCell>
        <mxCell id="uuffBCwRQU14lShZG_Nr-31" style="edgeStyle=orthogonalEdgeStyle;rounded=0;orthogonalLoop=1;jettySize=auto;html=1;exitX=1;exitY=0.5;exitDx=0;exitDy=0;entryX=0;entryY=0.5;entryDx=0;entryDy=0;" edge="1" parent="uuffBCwRQU14lShZG_Nr-24" source="uuffBCwRQU14lShZG_Nr-30" target="uuffBCwRQU14lShZG_Nr-28">
          <mxGeometry relative="1" as="geometry">
            <Array as="points">
              <mxPoint x="190" y="65" />
              <mxPoint x="190" y="65" />
            </Array>
          </mxGeometry>
        </mxCell>
        <mxCell id="uuffBCwRQU14lShZG_Nr-30" value="Receber dados e requisições" style="ellipse;whiteSpace=wrap;html=1;" vertex="1" parent="uuffBCwRQU14lShZG_Nr-24">
          <mxGeometry x="15" y="25" width="120" height="80" as="geometry" />
        </mxCell>
        <mxCell id="uuffBCwRQU14lShZG_Nr-32" value="Enviar respostas" style="ellipse;whiteSpace=wrap;html=1;" vertex="1" parent="uuffBCwRQU14lShZG_Nr-24">
          <mxGeometry x="135" y="200" width="120" height="80" as="geometry" />
        </mxCell>
        <mxCell id="uuffBCwRQU14lShZG_Nr-45" value="Salvar dados" style="ellipse;whiteSpace=wrap;html=1;" vertex="1" parent="uuffBCwRQU14lShZG_Nr-24">
          <mxGeometry x="10" y="280" width="120" height="80" as="geometry" />
        </mxCell>
        <mxCell id="uuffBCwRQU14lShZG_Nr-33" value="Data Base Container" style="swimlane;" vertex="1" parent="1">
          <mxGeometry x="905" y="530" width="380" height="270" as="geometry" />
        </mxCell>
        <mxCell id="uuffBCwRQU14lShZG_Nr-48" value="" style="shape=image;verticalLabelPosition=bottom;labelBackgroundColor=#ffffff;verticalAlign=top;aspect=fixed;imageAspect=0;image=data:image/png,iVBORw0KGgoAAAANSUhEUgAAA5EAAAK1CAYAAABRmGorAAAgAElEQVR4AeydMY8kyVa2Qfq4gAFCYCNdCQO8/QtjzfwAjBkLCQm0v2AkPNDaqIU7Blira4+BO94irXfHQst1GbBmHIx169Nbc9/uk1EZWdndlZEnI56UqjMzMuLEieeczIq3o7r6d05sEIAABCAAAQhAAAIQgAAEIACBlQR+Z2U9qkEAAhCAAAQgAAEIQAACEIAABE6ISJIAAhCAAAQgAAEIQAACEIAABFYTQESuRkVFCEAAAhCAAAQgAAEIQAACEEBEkgMQgAAEIAABCEAAAhCAAAQgsJoAInI1KipCAAIQgAAEIAABCEAAAhCAACKSHIAABCAAAQhAAAIQgAAEIACB1QQQkatRURECEIAABCAAAQhAAAIQgAAEEJHkAAQgAAEIQAACEIAABCAAAQisJoCIXI2KihCAAAQgAAEIQAACEIAABCCAiCQHIAABCEAAAhCAAAQgAAEIQGA1AUTkalRUhAAEIAABCEAAAhCAAAQgAAFEJDkAAQhAAAIQgAAEIAABCEAAAqsJICJXo6IiBCAAAQhAAAIQgAAEIAABCCAiyQEIQAACEIAABCAAAQhAAAIQWE0AEbkaFRUhAAEIQAACEIAABCAAAQhAABFJDkAAAhCAAAQgAAEIQAACEIDAagKIyNWoqAgBCEAAAhCAAAQgAAEIQAACiEhyAAIQgAAEIAABCEAAAhCAAARWE0BErkZFRQhAAAIQgAAEIAABCEAAAhBARJIDEIAABCAAAQhAAAIQgAAEILCaACJyNSoqQgACEIAABCAAAQhAAAIQgAAikhyAAAQgAAEIQAACEIAABCAAgdUEEJGrUVERAhCAAAQgAAEIQAACEIAABBCR5AAEIAABCEAAAhCAAAQgAAEIrCaAiFyNiooQgAAEIAABCEAAAhCAAAQggIgkByAAAQhAAAIQgAAEIAABCEBgNQFE5GpUVIQABCAAAQhAAAIQgAAEIAABRCQ5AAEIQAACEIAABCAAAQhAAAKrCSAiV6OiIgQgAAEIQAACEIAABCAAAQggIskBCEAAAhCAAAQgAAEIQAACEFhNABG5GhUVIQABCEAAAhCAAAQgAAEIQAARSQ5AAAIQgAAEIAABCEAAAhCAwGoCiMjVqKgIAQhAAAIQgAAEIAABCEAAAohIcgACEIAABCAAAQhAAAIQgAAEVhNARK5GRUUIQAACEIAABCAAAQhAAAIQQESSAxCAAAQgAAEIQAACEIAABCCwmgAicjUqKkIAAhkIvHjx4vQ7v/M7vGCwSw4o/9jGJcDzh2fvnu8/PH/GffZkHDkiMmNU8AkCEKgS0Bs4GwT2IkD+7UU+R7/EP0ccRvWC/Bs18jnHzWwsZ1zwCgIQqBDgTbQChuImBMi/JpjTdkL804ZmCMfIvyHCfJhBIiIPEyochQAERIA3UfJgTwLk35709++b+O8fg5E9IP9Gjn6+sSMi88UEjyAAgQUCvIkuwOHS5gTIv80Rp+6A+KcOT/fOkX/dh/hQA0REHipcOAsBCPAmSg7sSYD825P+/n0T//1jMLIH5N/I0c83dkRkvpjgEQQgsECAN9EFOFzanAD5tzni1B0Q/9Th6d458q/7EB9qgIjIQ4ULZyEAAd5EyYE9CZB/e9Lfv2/iv38MRvaA/Bs5+vnGjojMFxM8ggAEFgjwJroAh0ubEyD/NkecugPinzo83TtH/nUf4kMNEBF5qHDhLAQgMOqb6HfffXf+ZlqN369vv/329PPPP5MUDQmMmn8NEafuquf4zz1jNN7vv//+UTH54YcfTq9evTp9/vz5Ue2ofJ1Az/l3ffTUyEYAEZktIvgDAQgsEhjxTVRC8e3bt6effvrpno3KJCI1YWNrR2DE/GtHN39PPcdfIlKv526IyOcSrLfvOf/qo+ZKVgKIyKyRwS8IQGCWwIhvohKPEpHlqqMmfBaRcRUhrhyo7TfffHNevdTeQrRWbnEqznrZvoKhY5ePutIwYv7N3oiDFvYc/yUR6edCfM7o2Ft8nqg8Ph/ic8OfnrC9169f3z9nXOZnTHz2aFVTNnUt2o79xnL71du+5/zrLVYjjAcROUKUGSMEOiIw4puoJlNxwqZwqsyTJl3z5EyTrTdv3pzFoidlnoxpr3pfvnyZrGKW5RahmqC9fPnybEvHsuuPqKmO63WUXleHMmL+XYUyUIWe46/nSPmccWj9LPFzRs8M/1LKAs/PA9nwsyk+Q2xD1+Ox+4j9R/uuqzJt6kd15/q1f7bZ277n/OstViOMBxE5QpQZIwQ6IjDim6gmTRp3fM1N0hxmTbDihEvtfO46thnLdVxOwmxLEzZN5rypvV6jbSPm32gxXhpvz/HXvR6fMTq2ULSQ8z2v54F/WVX+gimeq358pvgZ419kRXt6pvl55P50Hu3F2JTlOvcvvWK9no57zr+e4jTKWBCRo0SacUKgEwKjvYlqMlX+PWQMpSZZ5cRP556Mqa4nZBaebl+Wa0LnSV1sJ1sqL/uJfdhm7/vR8q/3eD52fD3HXyJSr7nNzwrf81FEqiw+W6K4m3tuqO6nT58mn4bwqmL5jFH70r79K8ujT67T277n/OstViOMBxE5QpQZIwQ6IjDam6gmRvpNvvZzmyZStYmfyqMo1Lnrz5WrLJZ7Mvib3/zmftVBPowwWZtjrbLR8q/GYdTynuOv50PtWbIkIv2c8DMqnut5MmdzyV6ZW9FevFaW65yVyEiIYwhsSwARuS1frEMAAjcm0PMkbg6VJkZzX6rjuuVESpM2f3wsHsdJW61cAtNtXV8TwFI0qn1cebAvI+xHy78RYvqYMfYc/6eKSD8r9FzQJjt+PpTCTtf0jPHHWfXM8Rb7Vzt9lFbX9fyRPdf180urmSqP/fr5ZZu97XvOv95iNcJ4EJEjRJkxQqAjAqO9iWripMnV0qZJlLjoFSdRntz5midbtXL1EW3FfmO5+tDLKw9LvvV2bbT86y1+zx1Pz/HX/e5nRdyr3M8MC7nyF0sWfWp3d3c3eT6oje1ZXJb2FBeXua6fV7oW7dvGUvlz45y1vdiwQSALAbIxSyTwAwIQWEWAN9FVmKi0EQHybyOwBzFL/A8SqE7dJP86DexBh4WIPGjgcBsCoxLgTXTUyOcYN/mXIw57eUH89yJPvyJA/pEHmQggIjNFA18gAIGrBHgTvYqIChsSIP82hHsA08T/AEHq2EXyr+PgHnBoiMgDBg2XITAyAd5ER47+/mMn//aPwZ4eEP896dM3+UcOZCKAiMwUDXyBAASuEuBN9CoiKmxIgPzbEO4BTBP/AwSpYxfJv46De8ChISIPGDRchsDIBHgTHTn6+4+d/Ns/Bnt6QPz3pE/f5B85kIkAIjJTNPAFAhC4SoA30auIqLAhAfJvQ7gHME38DxCkjl0k/zoO7gGHhog8YNBwGQIjE+BNdOTo7z928m//GOzpAfHfkz59k3/kQCYCiMhM0cAXCEDgKoFf/vKX9/+4Wm+ovGDQMgeUf2zjEuD5w/Om5fOm7Ivnz7jPnowjR0RmjAo+QQACVQJ6U2WDwF4EyL+9yOfol/jniMOoXpB/o0Y+57iZjeWMC15BAAIVAryJVsBQ3IQA+dcEc9pOiH/a0AzhGPk3RJgPM0hE5GFChaMQgIAI8CZKHuxJgPzbk/7+fRP//WMwsgfk38jRzzd2RGS+mOARBCCwQIA30QU4XNqcAPm3OeLUHRD/1OHp3jnyr/sQH2qAiMhDhQtnIQAB3kTJgT0JkH970t+/b+K/fwxG9oD8Gzn6+caOiMwXEzyCAAQWCPAmugCHS5sTIP82R5y6A+KfOjzdO0f+dR/iQw0QEXmocOEsBCDAmyg5sCcB8m9P+vv3Tfz3j8HIHpB/I0c/39gRkfligkcQgMACAd5EF+BwaXMC5N/miFN3QPxTh6d758i/7kN8qAEiIg8VLpyFAARqb6I//fTT6c2bN6fPnz9fQPr+++9P33777ennn3++uDZXsGRr6dqcLcr6IlDLv75GyWhqBGrx3/O58NjnW21stypfYrF07Vb992ynln89j5mx5SWAiMwbGzyDAARmCDzlTfSxkywmOjPgKToTeEr+ga4fArX47/nMeOzzbeto7Mli67Htbb+Wf3v7Rf9jEkBEjhl3Rg2BwxKovYmWE5cffvjh/D8lv/nmm9Pbt2/vVyK/++67kyZd2rQyqRVK2dRL5VrJfPXq1flc+x9//PH08uXL88vnXvFUHzrWS+3Vl/zQFu2oD9XxtXMFfhySQC3/DjkYnH40gVr8a88f1Y+fgqg9F9Q+PmdUz88w2dBL5958rXy+lc80t5nzz36pjvqWrVjmfl2mvvWM1DNUW9nXLZ+f0bafsR6LGYy4V0zYIJCFANnYMBIvXrw4vxH4wcz+6xsjHNpwUP71sNXeROMkSceaEGnS4clInAiZQ5wQadKmOtrXbKldvCb78if24wmW9j5WP1Fgun/2xyNQy7/jjQSPn0KgFv/4XJh7/vhZUHsuxDbyS+cSdtpr0zPEz7BYt3y+yb7r6bnk547aSIzp+aZN1+bq6dqcfft/bvzbH1s+P+N443M29j/icS3/RmTBmPcngIhsGANu/oaw6eqCQC/5VxtHnCTFCZJAlOeGEydBLtM+2tJxnMzFa7Kr1UlPzGxP53HlsTyPfXF8LAK1/DvWKPD2qQRq8S+fCxZo6sfPid/85jfV50L5nCn9i8+weGz76u/Lly9nYajr2iww9VyK/sU2qmP//Bybsx+fc2fjxaqky7SPfZXjitfKfv38tN/lOHwe+xrtuJZ/o3FgvDkIICIbxoGbvyFsurog0Ev+1cYRJyeajJSTuHge4eg37LKplycp0VY8Vrt4rvrRridBqhOFJyIyEj/2cS3/jj0qvF9LoBb/+Fwonz++5o/G61xbfC64joWcrsdnk/r1s6a07+fQp0+fzr/U8nPMNlS/tO82FpG2rTal/bKt6niLPrrfWD8eq008jz7omvqVPTGQaLW9UlS67xH3tfwbkQVj3p8AIrJhDLj5G8KmqwsCveRfbRxLk5NysnIBZ2FCF+2qXTwv7cZJECuRc5SPX1bLv+OPjBGsIVCL/9JzQc8JiaJrK5Hlx03j6l981sRj+ezzx6xERqHo9hJr0V48j77McaoJ4shF7eJ52a+fn6VoLM/n+h+lrJZ/o4yfceYigIhsGA9u/oaw6eqCQC/5VxtHnJzE32R7AhJ/0244+q23Ji7a1EZ1tI+24rHqxfPaJEj1ZFsvberDf5t0LuDHYQnU8u+wA8LxRxGoxT8+F3Rc/k22nwW150JsL4f0bLFwK59hS8832fezTjb83JnzKdbzsfqeq2v/IyyVbfX8lF37pHGIu/ajb7X8G50L49+HACKyIXdu/oaw6eqCQC/5VxvH3CRMdfV69+7d+RtaNRkrJz6aqLmeJymepOmaPoIWVwhiP6rviY6Aa+LjyZZtyPbd3d3kb6EugkPBYQgonmzjEqjFPz4XRMfCR/XjM6L2XCjbWziqvYTg+/fvJ8+haD8+32I7tfUzTT7p+WR7amO/yufYkv+1Z1zsy2N8zvMzjsPfrh3HMmoGijMbBLIQIBsbRoKbvyFsurog0Ev+HXEcmvx4VeEiMBQcisAR8+9QgJM7e8v481xYF2wJ7Pg35uta9VnrlvnXJyFG1ZIAIrIhbW7+hrDp6oJAL/l3hHHE36LLX3+k7CIoFByOwBHy73BQD+Twc+LPc2F9oPWJDrH2i1XIr+yek3/r6VMTAusIICLXcbpJLW7+m2DEyBMJ9JJ/vYzjiWGk2c4EyL+dA7Bz98R/5wAM3j35N3gCJBs+IrJhQEa8+fXbQ43bL/09xXM2/a1F/NbLmq219WrteyzvJf96GUePOTbCmMi/EaJcHyPxr7PhyvYEyL/tGdPDegKIyPWsnl1ztJtfAjJ+jM8f5XmOkFwrDtfWe3ZQD2Sgl/zrZRwHSh1cDQTIvwBjwEPiP2DQEw2Z/EsUDFw5ISIbJsFIN39NMJbfQBdXKv1NcW4b/yZCxy4XR4tTicX47Zq1erGt2o/49xW95F8v42j46KGrGxIg/24I84CmiP8Bg9aRy+RfR8HsYCiIyIZBHOnmX/NtaqojMShBZ5EXRaBFZVzRjCuMbuOVzdhnrKcQy+6cvYbh372rXvKvl3HsnhA48CQC5N+TsHXTiPh3E8pDDoT8O2TYunUaEdkwtCPd/OWK4xxmiUMLO13XuVYVP336dC63OIyCMB6XNuO1eGyxKfvafG77pZ1ez3vJv17G0Wue9T4u8q/3CC+Pj/gv8+HqtgTIv235Yv1xBBCRj+P1rNoj3fxxVbAGTSIuikgLT4tIi74oCOOx7KqOuPoVP+bqL+BRG4lT21M7rUwiImuRyV0+0n2UOxJjekf+jRl3j5r4mwT7PQiQf3tQp88aAURkjcwG5SPd/LXVPgk6CUftJeqiiNR5XIm06IvCsTyO4rC8ZhFpX2zP54jIDZK8gcmR7qMGOOnikQTIv0cC66w68e8soAcbDvl3sIB17i4ismGAR7v5Jdq8MijMFm9aBdSmlcelv4m06KuJQ5VHESlR6P5iG/XF30Sezqu1Z/AH/zHafXTwcHXnPvnXXUgfNSDi/yhcVL4xAfLvxkAx9ywCiMhn4Xtc4xFvfglBjdsvC0iTi9e9KmmxOScifc1iUcLRtt+9e3de2VS7sp7PXde27ccIe429h62XcfQQixHHQP6NGPWHMRP/BxYctSdA/rVnTo91An3MKuvjS3WFmz9VOIZzppf862UcwyVgJwMm/zoJ5BOHQfyfCI5mNyFA/t0EI0ZuRAAReSOQa8xw86+hRJ2tCPSSf72MY6s4Y3dbAuTftnyzWyf+2SPUt3/kX9/xPdroEJENI8bN3xA2XV0Q6CX/ehnHRYAoOAQB8u8QYdrMSeK/GVoMryBA/q2ARJVmBBCRzVD388UmDZHR1Q0J9PLm08s4bhhaTDUkQP41hJ2wK+KfMCgDuUT+DRTsAwwVEdkwSNz8DWHT1QWBXvKvl3FcBIiCQxAg/w4Rps2cJP6bocXwCgLk3wpIVGlGABHZDDUrkQ1R09UMgV7efI46Dn0zce1/k+rbgv3txDOhoygRgaPmXyKEh3all/jrX2zpfynr32EtbUvPraV2XNuGQC/5tw0drLYmgIhsSJybvyFsurog0Ev+HXUcTMYuUvKQBUfNv0PCTuj0aPHnuZUrCUfLv1z08aYkgIgsiWx4zs2/IVxMXyXQS/7VxuHfrGtFT3X0iv8PVMcu96qf/3+o/seo/veormu1UBMnHb969er+N/Wuaxu2rd/k6zf66l9b7Mft4/8z1bHqvHz58tynfPnw4cN5JfLLly/nvftXXzr2Fm2r3OPwdfbbE1BM2MYlUIv/0vNH9228V/2M8TPlOc8f9atniV5+3qjMzzOXKWL2Uc+seCz/9AzTS+Ob+z/M8pltfwK1/NvfMzwYkQDvhg2j/stf/vJ+EqsHAS8YtMwB5V8PW+1N1BMnT3aiyPI1TZY8cdN1H3uCZ5EmG74W7VnQqZ4nWpFpKSjVNrb3cdle5/LBIjL6435kWxNC1bVvrhd94HhbArX827ZXrGchUIu/nzG+x+Pzx/e37lttqnOr54/7VR/a/JyY8+Nc4bc/1M4fZ1VbjSs+W/ys0962YnuO9yFQy799vKHX0QkgIhtmADd/Q9h0dUGgl/yrjUOTIv02XnttceIWj31NguzTp09n8eZJUpxYqZ4nUJ6YyY42izifnwt/O4GLq5Iu1962dKx2cYXA/llE2p8oSl3HE9HyPPbF8XYEavm3XY9YzkSgFv/HPH90f+t54OeI7/enPH/Kfksb5XWzjPXK55H9U9343HJb9vsRqOXffh7R88gEEJENo8/N3xA2XV0Q6CX/auOIkyINPoosTYriqp3rWkSqrjaXS7xp8wTKIlJ9x5cnf+fKv/0hG/4oWezTtlQt+hbPLSLtTxSR5RhKG9EHjrcjUMu/7XrEciYCtfiXz454f8ZjjcUizSLS93tpw8+MpedP2Ua24i+o4jMkcoztav6pvn2IbTnej0At//bziJ5HJoCIbBh9bv6GsOnqgkAv+VcbR5wUafBxYhSPfS2uROq6ttKGJ1C1idi50cIPTxZVxbZ0POePBOeSiKy18crkghtcuiGBWv7dsAtMJSZQi3/57Ij3azzW0PQs0OsxIrL2CYey37nz+AkNo431Sv9qzy23Zb8fgVr+7ecRPY9MABHZMPrc/A1h09UFgV7yrzaOOCnS4OPESNe0OqgyT9weM4mTPU/8dBztRdClD5qM6eX2Po6+6ZrPl0SkVyPiGOJKZ/SD4+0I1PJvux6xnIlALf7lve97Ws8bHZd/23yr50/Zr58Tftaon7nnRGwXfRVrtVU7bdrbVqY4jOpLLf9G5cG49yWAiGzIn5u/IWy6uiDQS/7VxhEnRRp8OTHSudrq5UmVBaWuaSttxAmU69qGJ1blKqXKXcf9yLbLtZ/zTXWXRKTHJNuakOobHaP98wD4sTkB8Wcbl0At/uWzo7zH9SxRW30C4u7u7lErkaJde/6U/aquyvyR+vjR1lg3Hpe+6hllERmfW+NGPc/Ia/mXx0M8GYkA74YNo83N3xA2XV0Q6CX/ehnHRYAeWaBJnid6j2xK9WcQIP+eAa+DpsS/gyAeeAjk34GD16HriMiGQeXmbwibri4I9JJ/vYzjIkBXCuLqghiwCnkF2EaXR82/jXAezizxP1zIunKY/OsqnIcfDCKyYQi5+RvCpqsLAr3kXy/juAgQBYcgQP4dIkybOUn8N0OL4RUEyL8VkKjSjAAishnq0/nvIRp2d+7Kf0ehv3mIfwOxxo/yb71im2g3lnOcl0Avbz69jCNvpuDZEgHyb4lO/9eIf/8xzjxC8i9zdMbzDRHZMOZ73/y3FJENsdHVjQjsnX83GsYuv4y5le/YOT6BXu6j40dinxEQ/3240+tXAuQfmZCJACKyYTSWbv74907x29T8rWlv3769/2Y3lfmb1/TNad78LWrqx18nHlcMo4iMx2rvb45TWx27nW19/Pjx/DdYr1+/Pvvx4cOH83lc4dTfaKm+Xir3Zr/kk8bBl4GYTNu94tLD1ss4eojFiGMg/0aM+sOYif8DC47aEyD/2jOnxzqBPmaV9fGlulK7+f1/nSy8JLL8pRkqUzvtLewsMlU2d6xBy0YUg6pbCkfD0TX3pz4k9FQ3fpzVfVsA+tx2JRAtaKP/suN/dOxx2ob7Z9+GQC3/2vR+u156GcftiGCpJQHyryXtfH0R/3wxGckj8m+kaOcfKyKyYYxqN38Ug3Inir3ymgSYxVqsVw5DdVS3FHtv3rw5i8NYP4rIWD4nIt13addCUe2jPfthu+W5y9lvT6CWf9v3fNseehnHbalgrRUB8q8V6Zz9EP+ccRnFK/JvlEgfY5yIyIZxqt38El26Fl/+OGoUZHK1JiIt6qKNtSJSdiXu3NZCcU5Eyh9t7k/npZiNPssHvbwhIk2i/V7x7WHrZRw9xGLEMZB/I0b9YczE/4EFR+0JkH/tmdNjnUAfs8r6+FJdqd38UXSVDpfXaiJS4swfSZUNi7UlsVf2pfNY/xYi0n64r/Lc5ey3J1DLv+17vm0PvYzjtlSw1ooA+deKdM5+iH/OuIziFfk3SqSPMU5EZMM41W5+/62gBKM2Ca34t45RHK4RkbanulEUliuGHnoUdqq/9DeR9nHJbhS+6tMfdY1+uW/27QjU8q+dB7fpqZdx3IYGVloTIP9aE8/VH/HPFY/RvCH/Rot47vEiIhvGZ+nml9jSR1hVxx9llWtRkOm8JiIt0NReAvT9+/fnlckvX76c97ITRWQ8tiBUW70kKrW5XP7421kfKyJlR/bs193d3eTjreeO+NGEgGLQw9bLOHqIxYhjIP9GjPrDmIn/AwuO2hMg/9ozp8c6gT5mlfXxpboy+s1vUWqRmio4AzjTS/71Mo4BUq7LIZJ/XYZ19aCI/2pUVNyAAPm3AVRMPpkAIvLJ6B7fcMSbXyuXGrdfWkll24dAL/nXyzj2yQJ6fS4B8u+5BI/dnvgfO35H9578O3oE+/IfEdkwntz8DWHT1QWBXvKvl3FcBIiCQxAg/w4Rps2cJP6bocXwCgLk3wpIVGlGABHZDPXpvBrXsDu6gsCEQC9vPr2MYxIcTg5DgPw7TKg2cZT4b4IVoysJkH8rQVGtCQFEZBPMXzvh5m8Im64uCPSSf72M4yJAFByCAPl3iDBt5iTx3wwthlcQIP9WQKJKMwKIyGaoWYlsiJquZgj08uZzy3H4y55kc+3f68ZvSC4xl9+mXF7n/PgEbpl/x6cx3ghq8Y/feL6Wip8//tbzte2eUk/f4P7mzZvzt7SX7Vv6UfbN+eMI1PLvcVaoDYHbEEBE3objKivc/KswUWkjAr3k3y3HoYmV/g+r9mu3JRG51gb1jkvglvl3XArjel6L/1NEZEuKSyKypR/09TwCtfx7nlVaQ+BpBBCRT+P2pFbc/E/CRqMbEegl/5bGoYmS/k+q6mivc0/u9D9KVe7/wxrrquzHH3+c/KY+frOwbfl/nsqOjlXn5cuXZ5sSox8+fJj8f1YJTtXVK650RtsqV1utBrDlJ6BYso1LoBb/2nPGpOKzw8+guAKo9nqW6KXnjZ5H8dzPMrWVD34myb77Vh1t5XPH/aid2vv/Pr9+/fpsy88tPZdsS88k1ddL5d48Dtl5+/bt5LnmOuy3I6B4sEEgCwGysWEkuPkbwqarCwK95F9tHJ4oecKjyY4mU5oUacJjEadyizZNuuY+4lWWq41e2mTHx+pLttWHNp3L9pcvX8579xPrybYmgCqzz653NsKP1ARq+ZfJaeeh8ivma2sfLUgsblr3v0V/tfgvPWcUjyj6FBO9fP/rutvrWFt57ueGnz1qP/fciLGXfQk92YrPNPcrG9p8Hv2Y60d2JGxtT2OyjapnYskAACAASURBVLMhfmxOoJZ/m3dMBxCYIYCInIGyVRE3/1ZksbuGQC/5VxuHJjYShOWENU58xClOpuJxZFgrVx1NmjzB0qQrTg49gbOIdL1oz3U0cdNWnkc/OM5HoJZ/mTzNklO1ezITq8f6Uov/0nOm7EPPBT1HSvFmgab6pb2SZXndfdRiH59B7tfPJ5+rbWk32rPf7qs8dzn77QjU8m+7HrEMgToBRGSdzc2vcPPfHCkGH0Ggl/yrjUOTnSjojKacfMXJVDx2fe/VTquM6i/+xr8UkfGaJ1wWkTrXFvvRxGuujUWl+2efk0At/zJ56zxUTjlfY5l8jfeFRYTGppfztiy36CjHqvzWvef26jOWzd2XpY2jnNfiH3lqLPGeLznKxpyIjL8EK+0pJpFjtF+yU5wcC8cs1rc/ZZx1Ptevn1fyWS9vsh3PXc5+OwK1/NuuRyxDoE4AEVlnc/Mr3Pw3R4rBRxDoJf9q4ygnP0aj8tpv+OPEyvXn9nGypEmTJ2aadHmCpXY+XxKRrqOJXGzj87n+KctDIOaf8sfiKebBGm9r+bqm7bU6Mcecr2WulzltMaC2/oh2rKP2GqP2cbMg8T0R77ctxxh9eM7xY32M8Y/9xnGrPJ6LTcwPczU7MS/9WHMen2vRFx9H+zH+sVx143nZb8wl+2375bnL2W9HoJZ/2/WIZQjUCSAi62xufoWb/+ZIMfgIAr3kX20cmiRpQq9JjzZP3PQlEpoU6zyWa+IUJ1bni7/9UU6k1NbtPSlX1TjBiudLIjL66clbnGBGPzjOR8D559jFvLAQu+a18ks5GVeWrrV5zPWYl87X6K+PVS/mo/qI1zS2tWOyf/GeKu8j18myf0ocHP9yDLblfNDe93U8Nm9xjaxLVuW529m+2tt+9EXXHTPZX/qbSD8rl/yIuSSfLFztj/uKPnC8HYFa/m3XI5YhUCeAiKyzufkVbv6bI8XgIwj0kn9L4/BETnU8QfdkTBOuWC50ccIbj3VNkzHV1ytO1lyufZxgqY3Pl0Sk68muhMS7d+8m9nWdLS8BxU1bmS+KvXNuyXvVU9zfv38/+ze8S23XXnMeShxokq9c1aa9zn1PaAx6yW/nuvduo/ouk925TeWuo73Gpz5iP3Pt9ix7ahw0vrnNY/W3QMdciIxVrtjrmRKfE26vutrKc5eJrXyI9mNdC0LHw3F0udrrF2vq3/H0NZ1HW+pTZXPPP/WvsSIiz+Fq9qOWf80coCMIBALzT8NQgcPbEeDmvx1LLD2eQC/599hxlJOix5PbtoUmYUzEtmV8S+vOvzKvdO5VmjX9le3XtFlbJ078lVsWEu5TIsY5J9Ey9w3FZV+1ehZIFiSxnvtTWdbtsT46/lnH08ovC0/nVqt+R++H/Bs9A3KNHxHZMB7c/A1h09UFgV7y77HjeOwk8QLcjQvkj1cTNJb4W/4bd4W5DQg4/ySaytWg7CLSE3+NwaJPiOIvMpyfuh4FqISgcrUUhDoXB9uTqDjCSqRT47HPB8ff7UfaK8Yav1/+RcRIDPYe68j5tzd7+r8kgIi8ZLJZCTf/ZmgxvIJAL/nXyzhWhIwqCQk4/0rxofPsIlI4JfKi+FVZFJcan1eXLBBVppeFYhkW1Xcdfzxbdd2+7K9sv+d5Gcd//dd/Pf3f//1f1SWNkw0CexEg//YiT79zBHgazlHZqKx28+uNds3Hico3u5qb/m2hfxtcq7dV+dJ4PFmpTUa28gm7p/MkrwcOtfuoh7ExhvwEnH/lc07PtMeIpbXP8/xEju1hGYe/+7u/O/3RH/3R6Z/+6Z9mxaTjf+xR4/1RCZB/R41cn34jIhvGtXbzl5ORmkvlm12tnn4r7N8k1+psWb52PFv6gO1LArX8u6yZu6SXceSmjHc1As4//0LMz9r4kdBa21i+9nke23B8ewJzcfjP//zPk8TkH//xH1+IScf/9p5gEQLXCZB/1xlRox0BRGQ71rMrQZ6I6MHglcNYpnKv2pVvdl5xVB3/XVX8WJH/XmGunvtQHbXXy/WFRH3577bib9dLH8r2tit7au9vgXv9+vW5jw8fPpx9lU+2Jd/tg8cqHzwW2dHXlEf/Goatm67EuIetl3H0EIsRxxDzT78w0/NRZX4Gi4mfbbpe+6VarDMixyxjXorDnJiM8c8yBvwYhwD5N06sjzDSPmaVRyB9qn+csJxkSCxZMElUWVzGNzsd++9vLNzcRuLLx6qn9rIT6/nYE5/YjydGFnSy5XoRta67XPaW/h+V/XG/amvf4m/ybS+Oz/7YRvSB4/UEennz6WUc6yNHzUwElH8jv168eDHk+P/8z//89Dd/8zfnsWfKR3wZiwDvf2PFO/toEZENI1S7+aOItGCygCtFl/52UnUkvCy4NIQo6KKIjOWup9+cf/r06dzeAi76oDZLq49GVtp2ebRl/92Pz9U2CkX75jHFMehaee6+2K8nUMu/9RZy1OxlHDlo4sVjCZB/jyV23PqsRB43dr16zvOn18gec1yIyIZxq938UXTp2B+PUn2/JKIkuqKI9DXvLfyi4NKxhZmGahsWkRJz2qIPKrNN770aWuKSfdfRcWkrikZdi+f2RX1ri6JUq45x5TGO6VyZH48moDj1sPUyjh5iMeIYyL/+oy7x+Pd///f8TWT/oT7cCHn+HC5kXTvcx6zyICGq3fxRwMXjclhRdC2JqngtCjPZ03lcidS5tthv2ab0Y+48isNoK5arXTyP49G12G8cg66V53M+ULZMoJZ/y63yXe1lHPnI4tEaAuTfGkrHrcO3sx43diN4zvNnhCgfZ4yIyIaxqt38UXTJnbgKJ6Hlv2mMokvH/ptIt/GKYxRcsb0FnOz7eE5Eyh8JTV+TPa9yRlyxH9lb+ptI24r9xvHIbhSRcXz2J65MRj84Xkegln/rWuep1cs48hDFk8cQIP8eQ+t4dfk/kceL2Uge8/wZKdr5x4qIbBij2s1vYeWPjPpc9fWSWNM2J7pcJ4q8KO7UTuLM9Sw03YfFXSlkLT7Vzn6VPtiGbdtPl6udv53V/fiazufGY//Ul+zJtsZ2d3c3+XirrrM9joBY9rD1Mo4eYjHiGMi/EaP+MGbi/8CCo/YEyL/2zOmxTqCPWWV9fKmucPM/LRwWnhapT7NCq17yr5dxkJHHJED+HTNut/Ka+N+KJHaeQoD8ewo12mxFABG5FdkZu9z8M1AqRXH1VNz4KGsF1COKe8m/XsbxiNBRNREB8i9RMHZwhfjvAJ0u7wmQf/coOEhAABHZMAjc/A1h09UFgV7yr5dxXASIgkMQIP8OEabNnCT+m6HF8AoC5N8KSFRpRgAR2Qz16fz3fQ27oysITAj08ubTyzgmweHkMATIv8OEahNHif8mWDG6kgD5txIU1ZoQQEQ2wfy1E27+hrDp6oJAL/nXyzguAkTBIQiQf4cI02ZOEv/N0GJ4BQHybwUkqjQjgIhshpqVyIao6WqGQC9vPr2MYyZEFB2AAPl3gCBt6OJj419+C3l0TV8WF7+RPF6rHev7AuK3sdfqrSlf8m3p2hrb1NmGwGPzbxsvsAqBrwQQkQ0zgZu/IWy6uiDQS/71Mo6LAFFwCALk3yHCtJmTt4x/ZhG5GUAMP4vALfPvWY7QGAKn0wkR2TANuPkbwqarCwJL+fd///d/p3/+53++aJOxoDaOpd+cP2Wy9tyx6xuF1/xbmrX15vyRffHwy/+Pda7umrIlhrH92nqxTS/HtfzrZXyMY5nAUvz1/5a1Sqg6Xi0s7xV/87j+j/Lbt2/vVyJjW7WP30guG6rvctuWp7ana3FVMz5X/G+yVEcvPTdif7L3448/nl6+fHl++fzNmzfneupDx3qpffzf0dGO+lcd+cu2DQHxZ4NAFgJkY8NIcPM3hE1XFwTm8k/i8R/+4R9Ov/d7v3f6gz/4g4s2GQvmxnHNzx5FpMYUJ5OezD1HSJYT3hrXtfVq7Y9c/pT8O/J48X1KoBZ/CzXff7o/JeTivaJjCTDVcX0Jry9fvpwFoNpoUz0JOu19X/uabPq+j/VsL4pPe25fdC576lN7tbdQ1LF9sw++Jn817ui3+9Hex+onCkz3z/52BGr5d7sesASB9QQQketZPbsmN/+zEWLgGQRi/lk8/v7v//7pF7/4xekP//APT//yL//yDOvtmsZxxF7jhEjlnvhoUhN/4x/blMeesKkPT9RUxxOsslx9aKKll655AqXJlM718uQvli3Vs99qG1cW1N6TNfupunHTeWyj+qUf5qR6vqZ2tqkyjz36ovJavRqf6Fsvx+LANi6BWvx9X+k+ilssL+/P8tztZEPPFLWN7XU9nuuZEO/3mr347HAfpS3ZtXAtr8munwm6ZnvRT5WX5ypjuy2BWv7dthesQWAdAd4N13G6SS1u/ptgxMgTCSj/SvGoMr3+7M/+7IlW2zer3UdxcqVjCTVNfvwb+jjZmvPa9dRGW5woaQKlc20SZraluvIn9mOhp73b6HqchOnaXL05v13v3Plvf5T24jUfq2/3Ge362L7Jvseja1590HGcVKr+XD1NHGt87EtP+1r+9TRGxlInUIt/7Z6M91S8h9SD2vie0rFs++VfNJV2S3uu773v+XIEus9dRza1RVvxuLwW/dQ1jUP21CY+IxCRZ6yb/lAM2SCQhQDZ2DAS3PwNYdPVBQHl31//9V+fP7rqyUSL/YsXL+4nL7fq72JwxYSonPSU59fax+tzkytPnGQ3Tto8uVJ7TbJ0PrfV6pV+lvZtq6zn8rgv+9f53MQv2irHGu3V6pVtyolltNHDsXKYbVwCtfiX94EJxfJ4D+m6zz99+nR+juhcWxRjsb2uxfP4HDk3XPGjZjvaLfuxn/pFmzb3G22pvDw/V+bHTQnU8u+mnWAMAisJ8G64EtQtqt1qAo2dh9/WwuJxLGorkX/6p396ixRvYqP2JhonQZrk+Df8cqqcBM05qjpRELpOWR4nSqVdT67UNoo4r3LGfNX1sl7pdxyT/dG+9Cle07H7kz1v9q20GcdQXpOP0WczjfVKXyIf993TvpZ/PY2RsdQJ1OKvvNfzQ/eDNt/LHz9+vF/dj3V8j+qeKkWk2nol0vV8L+ue9HNK96F/oaU+dc33aByByt1ePqiO9vE+jsdqG8/jM8Jjk01t2vs4+n2+yI+bE6jl3807wiAEVhBARK6AdKsq3Py3IomdpxCI+VeKyd7+JrKc9JTnc/zipCleL8t17olbaVeTKE+otPfETfs4uavVK+3p3BPG6FOcjMZy+aa//9TEM/avOjrXqxxP7DNeK/uu1Ytt1I/OzSf61stxvI96GRPjWE9gKf7KfYk/1fF9W94fuo90Xa93797d3696JsRyPS9UV1u0e3d3dy8CdS3ac58qj/e/nxe2b7suVzt9O6s/yu4+fa76teeXbci2fPPfcsoG2+0JiDMbBLIQIBsbRoKbvyFsurogMJd/FpM9fDtrnKx5YqPJj3+THydBF3B++1EsTaY8wbLw8yqBzrVpcmZbS5OrOImzLfli33Td9mzbk8Xot+udK4cfahMnjbZrW/F6tBs5yVwcQ7ymctsvGcZ6Zb+RT3C3m8O5+6ibwTGQqwSIfx1RfGbUa3HlOQTIv+fQo+2tCSAib010wR43/wIcLm1OYCn/JCZ7+z+RmtBozHrF3/gvgbbYUhsLKNWvlUcBpnoSbhZ9OpYd7S20bPf9+/f3QjTWk43ot8VqaVvn2txWdt3Xby+dd/KlvBYFoCrFMdhPjV3iWf2rvVZX5LNXJmI9Hdf4RF96ORYPtnEJEP+H2PuXS37G+CO4DzU4ujUB8u/WRLH3HAK8Gz6H3iPbcvM/EhjVb0qgl/zrZRw3DS7GmhEg/5qhTtkR8U8ZlmGcIv+GCfUhBoqIbBgmbv6GsOnqgkAv+ffUcZS/NZcdv/gN+kW6UFAh8NT8q5ij+GAEiP/BAtaZu+RfZwE9+HAQkQ0DyM3fEDZdXRDoJf96GcdFgCg4BAHy7xBh2sxJ4r8ZWgyvIED+rYBElWYEEJHNUJ/Oqx4Nu6MrCEwI9PLm08s4JsHh5DAEyL/DhGoTR4n/JlgxupIA+bcSFNWaEEBENsH8tRNu/oaw6eqCQC/518s4LgJEwSEIkH+HCNNmThL/zdBieAUB8m8FJKo0I4CIbIaalciGqOlqhkAvbz69jGMmRBQdgAD5d4Agbegi8d8QLqavEiD/riKiQkMCiMiWsPlq+Ia06aok0MubTy/jKOPD+TEIkH/HiNNWXhL/rchidw0B8m8NJeq0IoCIbEX6xEpkQ9R0NUOglzefXsYxEyKKDkCA/DtAkDZ0kfhvCBfTVwmQf1cRUaEhAURkS9isRDakTVclgV7efHoZRxkfzo9BgPw7Rpy28pL4b0UWu2sIkH9rKFGnFQFEZCvSCyuR33///enbb7896f/Yxa1W7jo//PDDfbvvvvvupPrlpjqvXr06ff78ubw0OVdb2WDrl0Avbz69jKPfTOt7ZORf3/G9Njrif40Q17ckQP5tSRfbjyWAiHwssWfUr938P/300+nly5cn7b35H6PPCUPXiSLSZeUeEVkSGfe8ln9HI9LLOI7GHX+/EiD/xs4E4j92/PcePfm3dwToPxJAREYaGx/Xbv45wRiFpYSg2vqlc21RRMaVSLX95ptvzvVVHlciJUptR3VUN9r3amQsm1sl3RgV5jcgUMu/Dbra1GQv49gUEsY3I0D+bYb2EIaJ/yHC1K2T5F+3oT3kwBCRDcO2dPNL3EWx5o+XRjEpV2O9ORGpj61KNKqetigiVT8KSl2zaHR/ahP7tMB1vbNRfhySwFL+HWlAvYzjSMzx9YEA+ffAYsQj4j9i1POMmfzLEws8OZ0QkQ2zYOnml3B78+bN+W8XLdwk+sotCsd4LJEnIRjtqG15Hu1F4VgeR0Eb+4ntOT4WgaX8O9JIehnHkZjj6wMB8u+BxYhHxH/EqOcZM/mXJxZ4gohsmgNLN38UjhJt5Yqh2vplgRfFnUVk2TaKSPdhO9p7hbEUkbGOjqM/TaHR2c0IKI49bL2Mo4dYjDgG8m/EqD+Mmfg/sOCoPQHyrz1zeqwT6GNWWR9fqivXbn4JOr8k6rSVojAKx3hsERlFo9rHc9m0ANW1UjjOCcqzE/zogsC1/DvKIHsZx1F44+eUAPk35THa2VPiH3+B6/fZa9z8nj5XL773z12nrF8CT8m/fmkwsr0JICIbRuDaza83BtXxF97INZV5FdBvRBaC8Y3EbziuYxGqcrePItJ/O+k3tCgoJTzjt8WqjvtsiIuubkzgWv7duLvNzPUyjs0AYXhTAuTfpnjTG39K/PV+q/fQa/9qKw7e7+mxjGMIPCX/oAaBrQggIrciO2P32s1vYRcFm0Wh2kpcvn///v5vJ+dEpLqVCPS3s97d3d2/edm+bElYypb7soC1qPS56z7mzW9m6BQlIHAt/xK4uMqFXsaxarBUSkeA/EsXkqYO1eIfP/Ujh/z+/OnTp/P7rdrpffnHH388v4ervuvpml7xF74u0y94ZUu/2FV7vWd/+PDhvP/y5ct5r/dt1/d7eGlb5X6/P3fMj0MSUJzZIJCFANnYMBLc/A1h09UFgV7yr5dxXASIgkMQIP8OEabNnKzFvyYi9Ytg/RJWX5xn4WjnynIJRr20SfT5WCJSAtLtLVAtIi0OYz3/0lhl/mW067l/9scjUMu/440Ej3sggIhsGEVu/oaw6eqCQC/5VxtHOYmLADQZazGBihO32P+exxq7mJWvuGKxxj9NRr1SsqZ+r3Vq+dfreBnXlEAt/uXzx0LvMSIy9lSKyHjv2bZFpMVmFKWuo/61leexL46PQ6CWf8cZAZ72RAAR2TCa3PwNYdPVBYFe8u8p4xhdRN5CQGsSGieyFwk2SMFT8m8QNEMMsxb/p4hIAVM7//lJvE9LERmvWRBaROpcWxSR5TPPbSwqhwhWh4Os5V+HQ2VIByCAiGwYJG7+hrDp6oJAL/lXG8fcJE51NUF7+/btqpXIOKGLgkkTMH0cTS/bVF1t/qiYyjXRUztP6pbsxb9xkg21kQ3biZO9uJroVQf1rYmm27g8TiRVp5xMnp0OP2RDfOYmstF/1SuZuO84wVW9169fn/2yT3N+ygWv3MpOtB37jeXB7d0O5SvbuARq8VfO+n89i06878p7skZPbXSvaNPe908pAH2+JCJdx8+R8rzmA+W5CdTyL7fXeNcrAd4NG0aWm78hbLq6INBL/tXGESdxFiGaOFnkRaFzAScIGrXRpkmc26hM/UZ7cbI3V88CqWYv/o2T/PU3Ittf21d724+TUU0wLbDieMuxxclsec3jnLNj/z2RlT+xXs3fyE32Y//RT4/TfFRPbef69fjn/G9dVsu/1n7Q3z4EavGfy23nbbxvo9dqUwrPeL/5OD4D1N7nSyLS95Hq+l6zP9EHjo9FoJZ/xxoF3vZCABHZMJLc/A1h09UFgV7yrzaOOCHzJEuTJ23l+QWc39axSNL10l68ZsHjyZnsa4vnKottrtmLE7zor4SVJ5PR77Jc53qVm9qKWfmyz7Fd9D/6K5vxXDaX/LUfthf91zWdR3vR57Jc5xassd5ex7X828sf+m1LYCn+vtf0C6J3797d3yNRRMZjee42shvvKZdrH58HauPzJRHperJb+tOWGL3dksBS/t2yH2xBYA0BROQaSjeqw81/I5CYeRKBXvKvNo4oPjTxihMyT7okamqb6sh2fHm1sGwv+xJD8bf9smvRpPqPtRf71bEEqP49gMah/uLmfmK5fYr1dKzyyKK8blGnctu1/zURLJtz/orHnL2yruqoj2jffpXl5aTb9fbaayxs4xI4avx1z+nFdmwCR82/Y1PH+xoB3g1rZDYo5+bfAComVxPoJf9q44giUkIkCqfyfA7aUp3ymgVbFF2yGc/LNrHP8prtxTo+jqLMZdqX5bVJ4lNFZOSp/uL5Wn8jj+h7aS9ei/24HiuRkRDHexKoPX/29Gmub91H+iWY/NUrPg/n6lN2DAJHyb9j0MTL5xJARD6X4CPac/M/AhZVb06gl/yrjSOKj7hCaCFzbRIV2wi+hJJXypZEXxRpqif/tH+MPfkehZIEof2N9qPN6J8njOq33GL78prOoxg1K9nxsdq7nnks+RvtqV3s3/6rzMf22fX8z9ljv2ZxdmTnH7X829ktum9EgPg3Ak03swTIv1ksFO5EABHZEDw3f0PYdHVBoJf8q40jikgNXuJEdfXS3yfpG0gljJY2izG18UdZbSsKGQkciSVtFltqozrqx8JorT33YX8t1s4d/Fbo+ZrFla7Jh7Jc4kxf1qG+tam+68S9xxNFn8cy5//d3d15fLKvLfKN/kZ754qFn+ama5FPtFErt70992LINi4B4j9u7DOMnPzLEAV8MAHeDU2iwZ6bvwFkuqgS6CX/ehlHNVBcSE2A/Esdns2dI/6bI6aDBQLk3wIcLjUngIhsiJybvyFsurog0Ev+PXUcXmVT+/IVVx0vwFEAgUDgqfkXTHB4YALE/8DB68B18q+DIHY0BERkw2By8zeETVcXBHrJv17GcREgCg5BgPw7RJg2c5L4b4YWwysIkH8rIFGlGQFEZDPUp/PqR8Pu6AoCEwK9vPn0Mo5JcDg5DAHy7zCh2sRR4r8JVoyuJED+rQRFtSYEEJFNMH/thJu/IWy6uiDQS/71Mo6LAFFwCALk3yHCtJmTxH8ztBheQYD8WwGJKs0IICKboWYlsiFqupoh0MubTy/jmAkRRQcgQP4dIEgbukj8N4SL6asEyL+riKjQkAAisiVsvhq+IW26Kgn08ubTyzjK+HB+DALk3zHitJWXxH8rsthdQ4D8W0OJOq0IICJbkT5dX4mM/xtND4r4/9SW3Cz/L9xS3do19a3/Lef/ATdXT/8X7qnfYin78Z+pz9kvy9b4VLbR+dz/qZurN1pZL28+vYxjtPzrZbzkXy+RfNo4iP/TuNHqNgTIv9twxMptCCAib8NxlZWlm39OoEkM+R+CL3XQQkTq3yPon6jrFf/Z+ZJf8RoiMtLY53gp//bx6Gm99jKOp42eVnsTIP/2jsC+/Sv+vGCwZw7sewfQOwQeCCAiH1hsflSbfPj/10lIxi2Wx2PVsXD8+PHjWWjKtlYJff7u3bvzucot+sqVPfUnkfrp06fTq1evzm+M2s+tRqqtBOSvf/3rixVL2fEDdal9bSVS/bl/2fEKrP29u7s72y9XQWO/UWyzEhmz6OFYbHvYehlHD7EYcQzk34hRfxgz8X9gwVF7AuRfe+b0WCfQx6yyPr5UV2o3v8XSnHiTINKrJiLV1oJSx65nMacyi7eyH4tItSmvleAkRC1G5Y/aaot96zzWizaiH7Hc/tp2rKdjCUf1Z9sWi7Gebbie9rYX+xr9uJZ/R+PSyziOxh1/vxIg/8bOBOI/dvz3Hj35t3cE6D8SQERGGhsf125+CaLa3yNKDEkUWSjNibco5FwviiiLqrKftSJSNrUKqfba1M6CLfa9hC+KvqV60V7ZJl7T+Cwo7ZPPPd6lfka8Vsu/o7HoZRxH446/XwmQf2NnAvEfO/57j5782zsC9B8JICIjjY2Pazd/Ke6iG08VkRabsmVRVfazVkSqnVYE5b9fXumU/XjdQi6OwXW8Ilpekx+2q70/tlr6W4rI2EbH9snjLfsZ/VyMeth6GUcPsRhxDOTfiFF/GDPxf2DBUXsC5F975vRYJ9DHrLI+vlRXaje/Vw+j8JPjsTwe65oElkVZFFeu55XIeF6KsriaV16L4CTK9IpbTahZ9Ma6Oo7+xmvyXeLPY49jKdvE81o/sl3zLfY74nEt/47GopdxHI07/n4lQP6NnQnEf+z47z168m/vCNB/JICIjDQ2Pl66+SWivAJnNySGvLJnMWgxJxHl+lF4uZ7bReGlY7VRX3P15j5SW4o8+2YBqi/yie1Urle5RT/iMvELcwAAIABJREFUtdJ+HJf9tT3t58Yle5EVIjISfjheyr+HWvmPehlHftJ4OEeA/JujMk4Z8R8n1hlHSv5ljMq4PiEiG8b+2s1v0aR6elkw2sV4Xd9YKvGmMgtCCUR/O6va2o5X+WRHQkzlqqtvcLUos5jzR0Ldp9qWZbpmX3TdNmXX9tzee9e3T/ZB5bG9fZJdXdMY/e2spR+qY3vxGiLS1Kd7seph62UcPcRixDGQfyNG/WHMxP+BBUftCZB/7ZnTY51AH7PK+vhSXWlx81tQSmCxQSASaJF/sb+tjnsZx1Z8sLstAfJvW77ZrRP/7BHq2z/yr+/4Hm10iMiGEWtx8yMiGwb0YF21yL8WSHoZRwtW9HF7AuTf7ZkeySLxP1K0+vOV/OsvpkceESKyYfS4+RvCpqsLAr3kXy/juAgQBYcgQP4dIkybOUn8N0OL4RUEyL8VkKjSjAAishnq0/nv9xp2R1cQmBDo5c2nl3FMgsPJYQiQf4cJ1SaOEv9NsGJ0JQHybyUoqjUhgIhsgvlrJ9z8DWHT1QWBXvKvl3FcBIiCQxAg/w4Rps2cJP6bocXwCgLk3wpIVGlGABHZDDUrkQ1R09UMgV7efHoZx0yIKDoAAfLvAEHa0MVa/OO/oIrd18pdR1+C5281r32zuOrEbyB323KvvspvdS/rcH5sArX8O/ao8P6oBBCRDSPHzd8QNl1dEOgl/zQOXjDYMwcubi4KhiFQe47qX1K9fPny/K+pDMNfdCdxV9uiiFyqg4is0RmrvJZ/Y1FgtFkIICIbRoKbvyFsurog0Ev+9TKOiwBRcAgC5N8hwrSZk7X4zwnGKCwlFtXWL51riyIyrkSqrf6fs+qrPIpIiVLbUR3Vjfa9GhnLvNq5GRgMNyGguLNBIAsBsrFhJLj5G8KmqwsCveRfL+O4CBAFhyBA/h0iTJs5uRT/8qOr/nhpFJNyLNabE5GfP38+i0bV0xZFpOpHQalrFo3uT21inxa4rnc2yo9DEljKv0MOCKcPTQAR2TB83PwNYdPVBYFe8q+XcVwEiIJDECD/DhGmzZxcir+E25s3b04SgRZuEn3lFoVjPJbIkxCMdtS2PI/2onAsj+PqY+wntuf4WASW8u9YI8HbHgggIhtG8cWLF/cfQdGDgBcMWuaA8q+HjTfRHqJ43DGQf8eN3S08X4p/FI4SbeWKYXzeW+BFcWcRWbaNItJ9RFteYSxFZKyj4+jPLVhgoz0BxZENAlkIkI1ZIoEfEIDAKgK8ia7CRKWNCJB/G4E9iNlr8Zeg80uiTlspCqNwjMcWkVE0qn08l00LUF0rheOcoDw7wY8uCFzLvy4GySAOQwAReZhQ4SgEICACvImSB3sSIP/2pL9/39fiL1GoOv7CG3kcRaRXEi0E50Sk61iEShh6FTGKSP/t5JxwlPCM3xarOu5zf4p48FQC1/LvqXZpB4GnEEBEPoUabSAAgd0I8Ca6G3o65pcYw+fAteePhV0UbBaFFpfv37+//9vJOREpyBKB/nbWu7u7swCUbduXLQlL2XJfFrAWlT53XbVlOzaBa/l37NHh/dEIICKPFjH8hcDgBHgTHTwBdh4++bdzAHbunvjvHIDBuyf/Bk+AZMNHRCYLCO5AAALLBHgTXebD1W0JkH/b8s1unfhnj1Df/pF/fcf3aKNDRB4tYvgLgcEJ8CY6eALsPHzyb+cA7Nw98d85AIN3T/4NngDJho+ITBYQ3IEABJYJ8Ca6zIer2xIg/7blm9068c8eob79I//6ju/RRoeIPFrE8BcCgxPgTXTwBNh5+OTfzgHYuXviv3MABu+e/Bs8AZINHxGZLCC4AwEILBOovYnGby1UHb/8TYXLVtddjd+kuK7F82vdclw1/2vlT/H+lv4+pf+t29Tyb+t+sZ+DAPHPEYdRvSD/Ro18znEjInPGBa8gAIEKgdqbqMWLBJE3f7V+LPO1p+xvKbbW9n/LcbXw/5b+rmXUsl4t/1r6QF/7ESD++7GnZ/5PMjmQiwAiMlc88AYCELhCoDaJmxMvMqWVSP2Dbv3ftTdv3pz/z5rKo6DSsf4xt/4vm//nWvw/bS5zm7dv355XOv0PwGXP/cs/veIKqI7nymMf0VZEYLvqO24el8p0zfa1d13t47g+fPhwPz4LbNlRPY3xy5cv533N39iP6phL9Os5/tonj8X/bL1WHvttdSzf2MYlQPzHjX2GkZN/GaKADybAu6FJsIcABA5BoPYmOideYtk1ESkBqTra1E6C0+cWbBZR2lvY6JqPLXrUTuJNews01dFLAlTl0Tf1+RhRFtvGvmRHPljcqe84Lvui9qqjc20ut4icax/79Hhd72zktz9iPZfHsiV/5bs4aLOP2tfKbb/lvpZ/LX2gr/0IEP/92NMzK5HkQC4CiMhc8cAbCEDgCoHaJM5CRdfjKwq7pZXIuBJoUSWxFDeVx3pR3MR68sUidK0tiavon+1dG5freR/7K/31NQlZc1E7l1tE+trSONymZPQcf2s8a+Uec8t9Lf9a+kBf+xEg/vuxp2dEJDmQiwAiMlc88AYCELhCoDaJs3iRuJnbSpEWRVA8VluJlrlVtrl6XjnTtShe4wqg7PmajrWV9XU9tvEYro1L9eSD7Wtv30t/3ee7d+/OK6IWgK5nEalzbVFElkzcxjZu4W85FvuxVO5+W+3Fl21cAsR/3NhnGDn5lyEK+GACvBuaBHsIQOAQBGpvotfEVikioygqBVF5bjBluWxIwJV9R/HlttpLcEngyU5pK9aLx6XteE3HshNXR6PdeOy6FpjyOwpalS+JyCVb0afn+Fva8WrumvJYZ8vjWv5t2Se28xAg/nliMaIn5N+IUc87ZkRk3tjgGQQgMEOg9iZ6TbxIRGqlT2LIYs6CqhRIquu/aZQLElx6lfVqIlLlXlV0HdlRv7W/iVS9KAY99Gvjkk9ud21c0f8oql2+JCKjH2U/9lX7WC+W+3jJ3yhsZUfx0b5Wbpst97X8a+kDfe1HgPjvx56e+TgrOZCLACIyVzzwBgIQuEKgNom7Jl5kVkJN7SXw9JHOmohUXYkd1dWrVi8KRNtWfduWDQsu21I9bxa2umbR6WveXxtXtC8b79+/v//bSotD1dFWntt/ly+JSLe3rx6jbd/CX4/VrOSXtlq5+2y5l29s4xIg/uPGPsPIyb8MUcAHE+Dd0CTYQwAChyDAm2iOMHl1Noc37bwg/9qxztgT8c8YlXF8Iv/GifURRoqIPEKU8BECELgnwJvoPYqmB3HVVDHw6mxTJxJ0Rv4lCMKOLhD/HeHT9fmTMWCAQBYCiMgskcAPCEBgFQEmcaswUWkjAuTfRmAPYpb4HyRQnbpJ/nUa2IMOCxF50MDhNgRGJcCb6KiRzzFu8i9HHPby4lr8yxV7fex7zaa/+537NuI1bV0nflmWy8q9/s649vfXZd3yXPbjF46V1+fO1/g01y5+mdbc9VHLruXfqFwY9z4EEJH7cKdXCEDgiQR4E30iOJrdhAD5dxOMhzWyFP85gSYxtOaj3y1EpL4ES98OrVf8gq+1wUBEriW1Xb2l/NuuVyxDYJ4AInKeC6UQgEBSAryJJg3MIG6Rf4MEujLMWvz9Lcn+RmE3j+XxWNctHD9+/HgWmrKtVUKf6xuQda5yi75yZU/9SaR++vTp/K9+VNf/8sc+eK+2EpC//vWv77/B2ddkR22vta+tRJbfoOwVWPt7d3d3tl2ugsZ+o9hmJdKRme4VHzYIZCFANmaJBH5AAAKrCPAmugoTlTYiQP5tBPYgZmvxt1iSmCo3CSK9aiJSbS0odex6FoMqs3gr+7GIVJvyWumHhKjFqPxRW22xb53HetFG9COW21/bjvV0LOGo/mzbYjHWsw3X0972Yl+jH9fyb3QujH8fAojIfbjTKwQg8EQCvIk+ERzNbkKA/LsJxsMaqcVfgkh/0zgnIiWGJIoslObEWxRyrhdFlEVV2c9aESmbWoVUe21qZ8EW+14KTBR9S/WivbJNvKbxWVDaJ597vEv9jHitln8jsmDM+xNARO4fAzyAAAQeQeDFixf3H7vSGyovGLTMAeUf27gEapP4UtxFQk8VkRabsmVRVfazVkSqnT8a6/vFK52yH69byMUxuI5XRMtr8sN2tffHVkt/SxEZ2+jYPnm8ZT+jn4sRGwSyECAbs0QCPyAAAQhsTOB//ud/Tn/xF39x0p4NAhB4PIHaJN6rh1H4yXosj8e6JoFlURbFlet5JTKel6IsruaV1+LoJMr0iltNqFn0xro6jv7Ga/Jd4s9jj2Mp28TzWj+yXfMt9jvicS3/RmTBmPcngIjcPwZ4AAEIQKAJAa2i/eIXvzixmtYEN510SGBpEi8R5RU4D11iyCt7FoMWcxJRrh+Fl+u5XRReOlYb9TVXb+4jtaXIs28WoPoin9hO5XqVW/QjXivtx3HZX9vTfm5cshdZISIj4Yfjpfx7qMURBNoQQES24UwvEIAABHYloNXH3/3d3z394z/+43nPauSu4aDzgxK4Nom3aFI9vSwYPdx4Xd9Y6v8NaUEogehvZ1Vb2/Eqn+xIiKlcdfUNrhZlFnP+SKj7VNuyTNfsi67bpuzantt77/r2yT6oPLa3T7Kraxqjv5219EN1bC9eQ0Sa+nQvVmwQyEKAbMwSCfyAAAQgsCEBrT7+5V/+5bkH7VmN3BA2prsl0GISb0EpgcUGgUigRf7F/jiGwBIBROQSHa5BAAIQ6ICAVyH//d///Twa7bUqyWpkB8FlCE0JtJjEIyKbhvRQnbXIv0MBwdldCSAid8VP5xCAAAS2J6BVx7/6q7+adMRq5AQHJxBYRYBJ/CpMVNqIAPm3EVjMPokAIvJJ2GgEAQhA4BgE/vd///e86uhVSHvt1UhdZ4MABNYRYBK/jhO1tiFA/m3DFatPI4CIfBo3WkEAAhA4BIG5VUg7zmqkSbCHwDoCTOLXcaLWNgTIv224YvVpBBCRT+NGKwhAAALpCdRWIe04q5EmwR4C6wgwiV/HiVrbECD/tuGK1acRQEQ+jRutIAABCKQnEL+RteYsq5E1MpRD4JIAk/hLJpS0I0D+tWNNT9cJICKvM6IGBCAAgcMRuLYK6QGxGmkS7CFwnQCT+OuMqLEdAfJvO7ZYfjwBROTjmdECAhCAQHoCf/u3f3v+J97/7//9v1N86V97xHMdq0z12SAAgWUCWt3XRJ4XDPbIAeUfGwSyEEBEZokEfkAAAhC4MYH/+I//OJUvTXzKMp2zQQACEIAABCAAgbUEEJFrSVEPAhCAQAcEJCLZIAABCEAAAhCAwHMIMJt4Dj3aQgACEDgYAUTkwQKGuxCAAAQgAIGEBBCRCYOCSxCAAAS2IoCI3IosdiEAAQhAAALjEEBEjhNrRgoBCEDg/IUgYIAABCAAAQhAAALPIYCIfA492kIAAhA4GAFWIg8WMNyFAAQgAAEIJCSAiEwYFFyCAAQgsBUBRORWZLELAQhAAAIQGIcAInKcWDNSCEAAAnyclRyAAAQgAAEIQODZBBCRz0aIAQhAAALHIcBK5HFihacQgAAEIACBrAQQkVkjg18QgAAENiCAiNwAKiYhAAEIQAACgxFARA4WcIYLAQiMTQAROXb8GT0EIAABCEDgFgQQkbegiA0IQAACByGAiDxIoHATAhCAAAQgkJgAIjJxcHANAhCAwK0JICJvTRR7EIAABCAAgfEIICLHizkjhgAEBiaAiBw4+AwdAhCAAAQgcCMCiMgbgcQMBCAAgSMQQEQeIUr4CAEIQAACEMhNABGZOz54B4HDE3jx4sX5fxNKvPDan8Gf/MmfEIeBc1H3IxsEIAABCEDguQQQkc8lSHsIQGCRACtfi3i4CIGmBLgfm+KmMwhAAALdEkBEdhtaBgaBHASYtOaIA15AQAS4H8kDCEAAAhC4BQFE5C0oYgMCEKgSYNJaRcMFCDQnwP3YHDkdQgACEOiSACKyy7AyKAjkIcCkNU8s8AQC3I/kAAQgAAEI3IIAIvIWFLEBAQhUCTBpraLhAgSaE+B+bI6cDiEAAQh0SQAR2WVYGRQE8hBg0ponFngCAe5HcgACEIAABG5BABF5C4rYgAAEqgSYtFbRcAECzQlwPzZHTocQgAAEuiSAiOwyrAwKAnkIMGnNEws8gQD3IzkAAQhAAAK3IICIvAVFbEAAAlUCTFqraLgAgeYEuB+bI6dDCEAAAl0SQER2GVYGBYE8BJi05okFnkCA+5EcgAAEIACBWxBARN6CIjYgAIEqASatVTRcgEBzAtyPzZHTIQQgAIEuCSAiuwwrg4JAHgJMWvPEAk8gwP1IDkAAAhCAwC0IICJvQREbEIBAlQCT1ioaLkCgOQHux+bI6RACEIBAlwQQkV2GlUFBIA8BJq15YoEnEOB+JAcgAAEIQOAWBBCRt6CIDQhAoEqASWsVDRcg0JwA92Nz5HQIAQhAoEsCiMguw8qgIJCHAJPWPLHAEwhwP5IDEIAABCBwCwKIyFtQxAYEIFAlwKS1ioYLEGhOgPuxOXI6hAAEINAlAURkl2FlUBDIQ4BJa55Y4AkEuB/JAQhAAAIQuAUBROQtKGIDAhCoEmDSWkXDBQg0J8D92Bw5HUIAAhDokgAissuwMigI5CHApDVPLPAEAtyP5AAEIAABCNyCACLyFhSxAQEIVAkwaa2i4QIEmhPgfmyOnA4hAAEIdEkAEdllWBkUBPIQYNKaJxZ4AgHuR3IAAhCAAARuQQAReQuK2IAABKoEmLRW0XABAs0JcD82R06HEIAABLokgIjsMqwMCgJ5CDBpzRMLPIEA9yM5AAEIQAACtyCAiLwFRWxAAAJVAkxaq2i4AIHmBLgfmyOnQwhAAAJdEkBEdhlWBgWBPASYtOaJBZ5AgPuRHIAABCAAgVsQQETegiI2IACBKgEmrVU0XIBAcwLcj82R0yEEIACBLgkgIrsMK4O6JYEXL16cNPHiBYM9ckD5x/ZAgPuR+3CP+9B9cj8+3IscQQACYxNARI4df0a/goAmD2wQ2IsA+TclD48pD87aEiD/2vKmNwhAIC8BZsd5Y4NnSQgwaUgSiEHdIP+mgYfHlAdnbQmQf2150xsEIJCXACIyb2zwLAkBJg1JAjGoG+TfNPDwmPLgrC0B8q8tb3qDAATyEkBE5o0NniUhwKQhSSAGdYP8mwYeHlMenLUlQP615U1vEIBAXgKIyLyxwbMkBJg0JAnEoG6Qf9PAw2PKg7O2BMi/trzpDQIQyEsAEZk3NniWhACThiSBGNQN8m8aeHhMeXDWlgD515Y3vUEAAnkJICLzxgbPkhBg0pAkEIO6Qf5NAw+PKQ/O2hIg/9rypjcIQCAvAURk3tjgWRICTBqSBGJQN8i/aeDhMeXBWVsC5F9b3vQGAQjkJYCIzBsbPEtCgEnDQyB+/vnn07fffnv67rvvHgpPp9MPP/xwLtd1ttsSIP+mPHvmoftK44uvV69enT5//jyFsOLMtnS/cl+uALaySs/5txIB1SAAAQicCSAiSQQIXCHApOEBkMWiJqZxYutyJqsPrG51RP5NSfbMQ8Kv/AXN999/f1E2JXJ5pvvw7du3p59++unyIiXPItBz/j0LDI0hAIHhCCAihws5A34sASYND8Q0wZVg1F6TW28WkV++fDmvSOpcm4TmmzdvzpNZTWh1LAEqpnq5nurq2OWsnpjs6czk4Yyjnu/HORFZ3luvX7++v3ckFsv7aW2ZM0l9+r7Tsbdaue7jb7755twmrpLKz5cvX56v9Xz/9px/jj17CEAAAmsIICLXUKLO0ASYNHwNvwShJofaayKplQ6vPJYTXZ1rK0WkJp8Wn5qkerLpianaeRIcJ7QjJyD5N41+zzyU82Xeu2zuvtA130O6d3R/6V5yXd+HtiGSsZ6O3V5tvHpZK9f9LOE4dw9Hu9OI9XXWc/71FSlGAwEIbE0AEbk1YewfngCThq8h1CTRE9w44dRVTzqvrURqpUKT3NhGttxex74WVznOhYP+IP+mge+Zh+4vjS++osjTsQWc7hWd697R5nNd97GuWfiV9XSul+1HyrVy3bv6NIFsatO572m1GeGe7Tn/Yg5wDAEIQOAaAUTkNUJcH54Ak4avKTA3wfWE1pPOayIyTkDdRhNe2YmT2XKyOnISkn/T6PfMI64YTkf9IBJ132grxaHK1L4mIsUtvnzvau9yl8nWXHkpFOWDP64e7+ezg53+6Dn/Og0Zw4IABDYigIjcCCxm+yHApGG64uDIRqHnCWQpIuNKRawvG24jERmPfW2EVQ2zXNqTf1M6PfN4jIiMq40i5HOJPx/rvopCb0pyehbbxCuxvLyH4/1d3sPRRk/HPedfT3FiLBCAwPYEEJHbM6aHgxNg0vB1VSKuFCqkcSXEE0iLSE2GtWlC67/TKiegbqNJqq6pnso8abWNg6fPs90n/6YIe+bxGBEpKqrv+1L3ju8130Mqcz3fT/Fe0/3pcrXx30TWyn3P67rtxv59fL7Y6Y+e86/TkDEsCEBgIwKIyI3AYrYfAqNPGjwh9cQxRtaT2A8fPtxPZj1JFbe7u7v7j7stiUjZ1IRXbfQaYTIaOS4dj55/JZueeeh+sqgrx+370MJQ113m+8bXXF6eu57vZddbW64+4/0dPy2gvka4b3vOvzLnOIcABCCwRAARuUSHaxA48S8WSIJ9CTBpnfKHx5QHZ20JkH9tedMbBCCQlwAiMm9s8CwJASYNSQIxqBvk3zTw8Jjy4KwtAfKvLW96gwAE8hJAROaNDZ4lIcCkIUkgBnWD/JsGHh5THpy1JUD+teVNbxCAQF4CiMi8scGzJASYNCQJxKBukH/TwMNjyoOztgTIv7a86Q0CEMhLABGZNzZ4loQAk4YkgRjUDfJvGnh4THlw1pYA+deWN71BAAJ5CSAi88YGz5IQYNKQJBCDukH+TQMPjykPztoSIP/a8qY3CEAgLwFEZN7Y4FkSAkwakgRiUDfIv2ng4THlwVlbAuRfW970BgEI5CWAiMwbGzxLQoBJQ5JADOoG+TcNPDymPDhrS4D8a8ub3iAAgbwEEJF5Y4NnSQj88pe/PGniwAsGe+SA8o/tgQD3I/fhHveh++R+fLgXOYIABMYmgIgcO/6MfgUBTR7YILAXAfJvSh4eUx6ctSVA/rXlTW8QgEBeAsyO88YGz5IQYNKQJBCDukH+TQMPjykPztoSIP/a8qY3CEAgLwFEZN7Y4FkSAkwakgRiUDfIv2ng4THlwVlbAuRfW970BgEI5CWAiMwbGzxLQoBJQ5JADOoG+TcNPDymPDhrS4D8a8ub3iAAgbwEEJF5Y4NnSQgwaUgSiEHdIP+mgYfHlAdnbQmQf2150xsEIJCXACIyb2zwLAkBJg1JAjGoG+TfNPDwmPLgrC0B8q8tb3qDAATyEkBE5o0NniUhwKQhSSAGdYP8mwYeHlMenLUlQP615U1vEIBAXgKIyLyxwbMkBJg0JAnEoG6Qf9PAw2PKg7O2BMi/trzpDQIQyEsAEZk3NniWhEBt0vDTTz+d3rx5c/r8+fOFp99///3p22+/Pf38888X12oFP/zww+nVq1ez9pbaXOtH/slP+ct2PAK1/DveSG7j8ZY8dL/qflIf33333SqHVU/3+9yme/ra/TnXjrK8BLbMv7yjxjMIQAAClwQQkZdMKIHAhMBTJg2tROTE0coJIrIC5iDFT8m/gwztSW5uyUP3ikTf3C+Gas4uichaG8qPS2DL/DsuFTyHAARGJICIHDHqjPlRBGqThnIlUqsOqvvNN9+c3r59e78CoQmpVhh1Ta+4wiEbqu/yuBJpe7oWVzPipNUrHV++fDnX0bXYT1xZUT+sRj4q9CkqK55sDwSWeMR7zfeScv7ly5fnVyzzfeey2FbXfvzxx8kKfrwf3Ua/LPL9pmPVUV9qr3v2w4cP533t/vSoom3dw/F+dx32OQgs5V8OD/ECAhCAQBsCzE7acKaXAxOoTRqiiLQY1GTQwk0TQU8e/XE3T2i196TV1zR59OQ01rM9XS839Rf78eRT5RaN6oePs5bkjnNey7/jjOC2ntZ4+D5R7mvTfaV7Jt6bKvd953pRtNXulbJctuN96+N436kvna+5P3Xfq67H4Pv4PBB+pCJQy79UTuIMBCAAgQYEEJENINPFsQnUJg2anPpvIj1Z1CRQW3luAnEyGtvrejzXpDROJGv2XF6K1dhPPLYf7I9DoJZ/xxnBbT2t8Yj3T+xR5Vod1F6b7hn/skbnsV3tXqmVq71EaBSR0faa+9N1rj07zs7zY3cCtfzb3TEcgAAEINCYACKyMXC6Ox6B2qQhTj6XRJ8mibLhl1cIlyazsuf63sfJqSl6AmoRqXNtcdIbj92O/XEIKP5sDwRqPMr7yS3ifaoy1fM95b3vyaV7RXZUT23iL3hKERmvrbk/l54dHgP7PARq+ZfHQzyBAAQg0IYAs5M2nOnlwARqk4Y4OfVksVxN+PTp03nVQ9e1xUlqbK9r8VwTS01Or23uFxF5jdRxr9fy77gjep7nNR7x/ok9lOW+Z3yvxrrx/ozl5XG8P58rIkt/yvOyb873JVDLv329oncIQAAC7QkgItszp8eDEahNGuLkVJPPub9rKkWkJp9e9dAkVqsWKtOmyahXG2U7fgRP1+IKhxF6womINJH+9rX862+k60ZU4xHvQVnSfaV75uPHj/cfO1f5XD3fdzURGe912473rY99P1qg+vza/Tn37LCNdVSo1YpALf9a9U8/EIAABLIQQERmiQR+pCVQmzSUE0tNGFVXr3fv3p2/oVUTQU0wY7kmtqqrTTb8Ebm7u7vzpFcTWW3Rnie5Kp9b+ViapFqsWryejfPjMARq+XeYAdzY0SUe8X7yPVPep3In1ov3RRSR8Vht4n0cf6Hjcu0tGi0Afb50f8q273X5omdHtH9jfJh7JoGl/HumaZpDAAIQOBQBROShwoWzexA+nbI9AAAgAElEQVRg0rAHdfo0AfLPJL7ue+ehXxLpxZaTQO/5l5M6XkEAAhkJICIzRgWfUhFg0pAqHMM5Q/5NQ94bj7gqqrGxCjmNd7az3vIvG1/8gQAEjkMAEXmcWOHpTgSYNOwEnm7PBMi/aSLAY8qDs7YEyL+2vOkNAhDISwARmTc2eJaEAJOGJIEY1A3ybxp4eEx5cNaWAPnXlje9QQACeQkgIvPGBs+SEGDSkCQQg7pB/k0DD48pD87aEiD/2vKmNwhAIC8BRGTe2OBZEgJMGpIEYlA3yL9p4OEx5cFZWwLkX1ve9AYBCOQlgIjMGxs8S0KASUOSQAzqBvk3DTw8pjw4a0uA/GvLm94gAIG8BBCReWODZ0kIMGlIEohB3SD/poGHx5QHZ20JkH9tedMbBCCQlwAiMm9s8CwJASYNSQIxqBvk3zTw8Jjy4KwtAfKvLW96gwAE8hJAROaNDZ4lIcCkIUkgBnWD/JsGHh5THpy1JUD+teVNbxCAQF4CiMi8scGzJASYNCQJxKBukH/TwMNjyoOztgTIv7a86Q0CEMhLABGZNzZ4loQAk4YkgRjUDfJvGnh4THlw1pYA+deWN71BAAJ5CSAi88YGz5IQYNKQJBCDukH+TQMvHrxgsGcOTDOSMwhAAAJjEkBEjhl3Rv0IAkziHwGLqjcnQP5NkcJjyoOztgTIv7a86Q0CEMhLABGZNzZ4loQAk4YkgRjUDfJvGnh4THlw1pYA+deWN71BAAJ5CSAi88YGz5IQyDZp+OGHH84f5/vmm29Ov/rVr07ffvvt6eeff34SrZ9++un05s2b0+fPn5/UnkbbE8iWf9uPeLkHeCzz4eq2BMi/bfliHQIQOA4BRORxYoWnOxHINmn4/vvvT3ppk6BERO6UGI26zZZ/jYZd7QYeVTRcaECA/GsAmS4gAIFDEEBEHiJMOLkngdqkwat4d3d39yuDKvPmFUO1j0Ivlr969ep+FVCriaqn+nqpnjatEmq1ULYlHn39u+++m4jIWnvZiH3atuyqf51HP+w/+xwEFB+2BwLweGDBUXsC5F975vQIAQjkJMDsJGdc8CoRgdqkQaJOHymVmNMmgWexqGsvX748Cz+LO9WLgtBtvKqo624v0SfbUZQaieq7T9Vzm1r76Iv7dBtd4+OsJptzX8u/nN5u7xU8tmdMD3UC5F+dDVcgAIGxCCAix4o3o30CgdqkoRRnUSBGQakuLfY+ffp0v6oYXbHQVD1tPrfAjHXnROSXL1/OYnJNe/uiPhCRkWzO41r+5fR2e6/gsT1jeqgTIP/qbLgCAQiMRQAROVa8Ge0TCNQmDaUAK0Wk2sWXPzKqdlpl1DWvCPqjpRaBclMri2tFpMSp7Nfay1b0xf2WY3gCHppsTEBxY3sgAI8HFhy1J0D+tWdOjxCAQE4CzE5yxgWvEhGoTRokwPyRVbkbz+Nq4dJQXM8rjxaBPl8rIpdWImXTAla+6BwRuRSVXNdq+ZfLy3bewKMda3q6JED+XTKhBAIQGJMAInLMuDPqRxCoTRq8omihp30UZ1Fg+u8VP378OPkbRLVxe9eRgJTQu9XfREYRaXEa/eRvIh+RDDtUreXfDq6k6BIeKcIwrBPk37ChZ+AQgEBBABFZAOEUAiWB2qTBHwWVIFOduNonGxJvKi+vSTS63GJO9S3wfE3ttcWPyepc7SU4tamObdTax3IJ0/fv398LWX+MtvT9bJwfKQgoH9geCMDjgQVH7QmQf+2Z0yMEIJCTALOTnHHBq0QEapMGi0gJMTYIbEWgln9b9ZfdLjyyR6hv/8i/vuPL6CAAgfUEEJHrWVFzUAK1SQMictCEaDzsWv41diNNdy15aNXfK/1zALzK708GuE78hIDL2PdBoGX+9UGMUUAAAr0SQET2GlnGdTMCTBpuhhJDTyBA/k2hteRxTURaLEpoxk8kuFwik60vAi3zry9yjAYCEOiNACKyt4gynpsTYNJwc6QYfAQB8m8Ka4mH/8ZXdfx3vvrEgL7kSi+V/fjjj/d/EyzLpeDTudrr74ffvn27uBKpFUjV116C05ttlt+aLP/0RVbyyZ9kkABVf3qpnTf7ofKl1VDXZ9+GgOLBBgEIQAACpxNPQ7IAAlcIMGm4AojLmxIg/6Z4azz80VILMX8BlcSaBKHLLd68cqhyi7RY1/Z8berF1y+80jXZUTsJTq882uY1ESm/LD4lRN3XnB/lR2ZLfzhvQ6CWf216pxcIQAACeQggIvPEAk+SEmDSkDQwg7hF/k0DXeNRikO3Unn8dztlPQs+CcB4rPbluW36moWd2kpEyravSRBeE5HRr9hXPLY9r6yeO+DHbgRq+bebQ3QMAQhAYCcCiMidwNPtcQgwaThOrHr0lPybRrXGQ8JrTmiVorE8j4Kt/BvIeG3qxen8EVb5El9eVXS7ayIy/o9Wt5EgLf0ofS594bwdgVr+tfOAniAAAQjkIICIzBEHvEhMgElD4uAM4Br5Nw1yjUdNaJXl5XkUbFHIqdfy3J7IRlxFVHm063aliIztYv2yL7ePH4+dE8j2h307ArX8a+cBPUEAAhDIQQARmSMOeJGYAJOGxMEZwDXybxrkGg9/qY4EmDaLw48fP06+SEfizX8jKZGmj536bxGjjfJa9MK2LfJ0Lba1CLSI9Mde1U59y4clETnno21EPzhuT6CWf+09oUcIQAAC+xJARO7Ln94PQIBJwwGC1LGL5N80uEs8LL5Uxyt3pViTNYk51ZGge/fu3b2I1DUJQF3TS9fiF+bousWlbJSbhJ4E6YcPH+5tRp/u7u4uvp1V4lObhaeFafTDIrfsj/P2BJQXbBCAAAQgwLezkgMQuEqAScNVRFTYkAD5N4ULjykPztoSIP/a8qY3CEAgLwF+pZY3NniWhACThiSBGNQN8m8aeHhMeXDWlgD515Y3vUEAAnkJICLzxgbPkhBg0pAkEIO6Qf5NAw+PKQ/O2hIg/9rypjcIQCAvAURk3tjgWRICTBqSBGJQN8i/aeDhMeXBWVsC5F9b3vQGAQjkJYCIzBsbPEtCgElDkkAM6gb5Nw08PKY8OGtLgPxry5veIACBvAQQkXljg2dJCDxl0hC/aVHf2Dj3TY63Gp6/xVHfNPmrX/3q/lshn2J/7pssn2KHNrcj8JT8u13v+SzBI19MRvKI/Bsp2owVAhBYIoCIXKLDNQicTuev+n8siJYiUgLVIjX2+1ifVR8R+RRq27Zh0jrlC48pD87aEiD/2vKmNwhAIC8BRGTe2OBZEgJLkwavAqqOXjrXZjH3b//2b/f/c05Cz+X+X3Aq00ql//fc69ev7+34n5fbtv/ZuMrfvHlzFnxqH69H+7bp6/bN/rlce12L/fl/7CUJwdBuKD5sDwTg8cCCo/YEyL/2zOkRAhDISYDZSc644FUiArVJg1btXr58eRZzcleCzv8UPIq5+HHWWO42UURaKFoAyqa2sq9z4W9/WIjqNNqXreiPPu4qO6Wt6LeuSaD6H6DHfjjeh0At//bxZv9e4bF/DEb2gPwbOfqMHQIQiAQQkZEGxxCYIbB20hAFXDx+jIi0aCzdiKuP5bU5Efnly5ezgJQf2kpRGm1EXxGRkUyO47X5l8Pb7b2Ax/aM6aFOgPyrs+EKBCAwFgFE5FjxZrRPILA0aZBA1HW/4sqfjx8jIi365KaObVd7rySWQ5gTkZ8+fTrpI6nRXvSj5jcisqS7/7liz/ZAAB4PLDhqT4D8a8+cHiEAgZwEmJ3kjAteJSJQmzRIoMW/HdS5hWM8juItlmuIuqaXVwp1XZv/PjGe++8gSzRzInJpJVI2a34jIku6+5/X8m9/z/bxAB77cKfXrwTIPzIBAhCAwFcCiEgyAQJXCNQmDVGMWQSuEZFeUbRQXCMiJRTdrnR3TkTKH9mN/rj9kt+IyJLu/ue1/Nvfs308gMc+3On1KwHyj0yAAAQg8JUAIpJMgMAVArVJg4WjrkugvX///v5LaSTULOAk8lRHe20SdzrXauDd3d3sSqTquZ3qvnv37v5vHMu/j6yJyOifbMgnbbG89NvCNq5UnhvxYzcCih3bAwF4PLDgqD0B8q89c3qEAARyEmB2kjMueJWIAJOGRMEY0BXybxp0eEx5cNaWAPnXlje9QQACeQkgIvPGBs+SEGDSkCQQg7pB/k0DD48pD87aEiD/2vKmNwhAIC8BRGTe2OBZEgJMGpIEYlA3yL9p4OEx5cFZWwLkX1ve9AYBCOQlgIjMGxs8S0KASUOSQAzqBvk3DXxLHvp7Y/9ts72If1MsX+KrrOs2c3vb8d8qz9WhLB+BlvmXb/R4BAEIQOCBACLygQVHEJglwKRhFguFjQiQf1PQLXnMicjojb7N+OXLlyft2cYg0DL/xiDKKCEAgaMSQEQeNXL43YwAk4ZmqOlohgD5N4WyxMPfLqw6/oZhCz2JPZX9+OOP99+iLMvxm5R9rvb65uK3b99erERGb2w7ikh9+/Lr169nv5FZdiVMtcWVSLXX/4HVSqbq6BVXKP2NzrF99IPjdgQUAzYIQAACEDideBqSBRC4QoBJwxVAXN6UAPk3xVvjEUWZWvhf30igSRBalFmwSXBqiyIy1rW9pY+oqn65Ehn/P6v9sI05++rf5RaY0YbKoiCOYzkPgB9NCdTyr6kTdAYBCEAgAQFEZIIg4EJuAkwacsend+/Iv2mEazwkxLSaZ3HoVqXQK+tFERmP1b48t03vS9sqlwDUS5uFqMWhr+vc1ywioxiN/cpW2d72z53woymBWv41dYLOIAABCCQggIhMEARcyE2ASUPu+PTuHfk3jXCNh4SXV+xii1I0ludRsEmsedVQNuK1aNPHNRFp0WehKJ/jSyLQ19RHzacvX76c/bE99atjRKQj0H5fy7/2ntAjBCAAgX0JICL35U/vByDApOEAQerYRfJvGtwaj1KIuVVZXp5H4ViKxvLcNr2XrbiCqPK4chiFott4H6+VPsV+oz3bR0SaYvt9Lf/ae0KPEIAABPYlgIjclz+9H4AAk4YDBKljF8m/aXBrPPylOhJg2iwOP378OPmYqwSb/67QQs6rj9FGeW3qxdezayIy+iF7ti/fbF/+LolI1fUKa/R9zh/KtidQy7/te6YHCEAAArkIICJzxQNvEhJg0pAwKAO5RP5Ng73EwyJLdaLwKv9WUsJMdSQm3717d/ERVl3TS9f0Da0SfHPbGhGpdlo5tE2vIq4VkWV7+c62HwHFkQ0CEIAABPh2VnIAAlcJMGm4iogKGxIg/6Zw4THlwVlbAuRfW970BgEI5CXAr9TyxgbPkhBg0pAkEIO6Qf5NAw+PKQ/O2hIg/9rypjcIQCAvAURk3tjgWRICTBqSBGJQN8i/aeDhMeXBWVsC5F9b3vQGAQjkJYCIzBsbPEtCoDZpKL8MI7qrv1vyl3XE8nisL9nQ32rJzmO2pX4fY+da3fJbIWP9+O2RsZzj2xOo5d/tezqGRXgcI069ekn+9RpZxgUBCDyWACLyscSoPxyBp0wathSRrQKwJCJb+UA/p/MXssDhgcBT7seH1hxB4HkEyL/n8aM1BCDQDwFEZD+xZCQbEahNGsoVQa3Oqa6+8VHf6Li0EulvZnR9/RsC1X/9+vXZhmzFOqqnMm2xX5VpNVMv2/LKZq19uQJqv9Xe32jpb69UmY5VR/8PT2OTnx8+fDjv/c/Q5759Ur5G26qzxGSj8B3erGLA9kAAHg8sOGpPgPxrz5weIQCBnASYneSMC14lIlCbNEQxp+Pa/56rDSWKOQs+CS1vOva5xJjsq5/Yr0Wa9qWNKNpie9vXPvqgcwlGvbSpvY/L9jqXILSItDiM9WRbolRl9s31zh3wYxWBWv6tatxhJXh0GNQDDYn8O1CwcBUCENiUACJyU7wY74FAbdJQirkokCyyJJ5qWxRwFlkWbVGAqb2vy27Zr1cPVU/tJf5i/dje9u1T9MFl3pciMvbj8VlE2m605zpmUJ67H/bLBGr5t9yq36vw6De2RxgZ+XeEKOEjBCDQggAisgVl+jg0gdqkIYo5iahbiEgJLW0Wkeo7vtRP7LcUZrou8ef2tiebURTGgMieVjnVTxxDrF/243OLSPcTReRTmES/OP5KoJZ/o/KBx6iRzzFu8i9HHPACAhDYnwAicv8Y4EFyArVJw5KYs8jyKtzcEKPgKlcO47Wy7VK/FpGlPZ/r+tLm9qrzXBFZMijPl/zg2gOBWv491BjrCB5jxTvbaMm/bBHBHwhAYC8CiMi9yNPvYQjUJg1RzMWVPwu2uKo3N9goFN3GK3qqLxGnlzavFup67LcUZqUItA+q57+pjL5EWypXewvN54rIpzCJvnH8lUAt/0blA49RI59j3ORfjjjgBQQgsD8BROT+McCD5ARqk4ZSgEmoqa5e7969O39Dq8RhbbNwlLjzt7PKhjdft02Lu9jvkogs29t2FK/qS3bdh0VnLNf1sh+fL32cVTZUT7Y1RjGJ9j1O9ssExI/tgQA8Hlhw1J4A+deeOT1CAAI5CTA7yRkXvEpEgEnDbYIRV1ZvY3EMK+TfNM7wmPLgrC0B8q8tb3qDAATyEkBE5o0NniUh8NRJQ7kSKDt+zX20NMlwb+aGVkw1To+ZVcinoX1q/j2tt/yt4JE/Rj17SP71HF3GBgEIPIYAIvIxtKg7JAEmDUOGPc2gyb9pKOAx5cFZWwLkX1ve9AYBCOQlgIjMGxs8S0KASUOSQAzqBvk3DTw8pjw4a0uA/GvLm94gAIG8BBCReWODZ0kIMGlIEohB3SD/poGHx5QHZ20JkH9tedMbBCCQlwAiMm9s8CwJASYNSQIxqBvk3zTw8Jjy4KwtAfKvLW96gwAE8hJAROaNDZ4lIcCkIUkgBnWD/JsGHh5THpy1JUD+teVNbxCAQF4CiMi8scGzJASYNCQJxKBukH/TwMNjyoOztgTIv7a86Q0CEMhLABGZNzZ4loQAk4YkgRjUDfJvGnh4THlw1pYA+deWN71BAAJ5CSAi88YGz5IQYNKQJBCDukH+TQMPjykPztoSIP/a8qY3CEAgLwFEZN7Y4FkSAkwakgRiUDfIv2ng4THlwVlbAuRfW970BgEI5CWAiMwbGzxLQoBJQ5JADOoG+TcNPDymPDhrS4D8a8ub3iAAgbwEEJF5Y4NnSQgwaUgSiEHdIP+mgYfHlAdnbQmQf2150xsEIJCXACIyb2zwLAkBJg1JAjGoG+TfNPDwmPLgrC0B8q8tb3qDAATyEkBE5o0NniUhwKQhSSAGdYP8mwYeHlMenLUlQP615U1vEIBAXgKIyLyxwbMkBJg0JAnEoG6Qf9PAw2PKg7O2BMi/trzpDQIQyEsAEZk3NniWhACThiSBGNQN8m8aeHhMeXDWlgD515Y3vUEAAnkJICLzxgbPkhBg0pAkEIO6Qf5NAw+PKQ/O2hIg/9rypjcIQCAvAURk3tjgWRICTBqSBGJQN8i/aeDhMeXBWVsC5F9b3vQGAQjkJYCIzBsbPEtCgElDkkAM6gb5Nw08PKY8OGtLgPxry5veIACBvAQQkXljg2dJCDBpSBKIQd0g/6aBh8eUB2dtCZB/bXnTGwQgkJcAIjJvbPAsCQEmDUkCMagb5N808PCY8uCsLQHyry1veoMABPISQETmjQ2eJSGgSQMvGOyZA0luhRRuMIlPEYZhnSD/hg09A4cABAoCiMgCCKcQKAkwaSiJcN6SAPk3pQ2PKQ/O2hIg/9rypjcIQCAvAURk3tjgWRICTBqSBGJQN8i/aeDhMeXBWVsC5F9b3vQGAQjkJYCIzBsbPEtCgElDkkAM6gb5Nw08PKY8OGtLgPxry5veIACBvAQQkXljg2dJCDBpSBKIQd0g/6aBh8eUB2dtCZB/bXnTGwQgkJcAIjJvbPAsCQEmDUkCMagb5N808PCY8uCsLQHyry1veoMABPISQETmjQ2eJSHApCFJIAZ1g/ybBh4eUx6ctSVA/rXlTW8QgEBeAojIvLHBsyQEmDQkCcSgbpB/08DDY8qDs7YEyL+2vOkNAhDISwARmTc2eJaEAJOGJIEY1A3ybxp4eEx5cNaWAPnXlje9QQACeQkgIvPGBs+SEGDSkCQQg7pB/k0DD48pD87aEiD/2vKmNwhAIC8BRGTe2OBZEgJMGpIEYlA3yL9p4OEx5cFZWwLkX1ve9AYBCOQlgIjMGxs8S0KASUOSQAzqBvk3DTw8pjw4a0uA/GvLm94gAIG8BBCReWODZ0kIMGlIEohB3SD/poGHx5QHZ20JkH9tedMbBCCQlwAiMm9s8CwJASYNSQIxqBvk3zTw8Jjy4KwtAfKvLW96gwAE8hJAROaNDZ4lIcCkIUkgBnWD/JsGHh5THpy1JUD+teVNbxCAQF4CiMi8scGzJASYNCQJxKBukH/TwMNjyoOztgTIv7a86Q0CEMhLABGZNzZ4loQAk4YkgRjUDfJvGnh4THlw1pYA+deWN71BAAJ5CSAi88YGz5IQYNKQJBCDukH+TQMPjykPztoSIP/a8qY3CEAgLwFEZN7Y4FkSAkwakgRiUDfIv2ng4THlwVlbAuRfW970BgEI5CWAiMwbGzxLQoBJQ5JADOoG+TcNPDymPDhrS4D8a8ub3iAAgbwEEJF5Y4NnSQgwaUgSiEHdIP+mgYfHlAdnbQmQf2150xsEIJCXACIyb2zwLAkBJg1JAjGoG+TfNPDwmPLgrC0B8q8tb3qDAATyEkBE5o0NniUhwKQhSSAGdYP8mwb+xYsXJzHhBYM9ckD5xwYBCEAAAqcTIpIsgMAVAkzirwDi8qYEyL9N8Q5nnHwaLuQMGAIQgMAmBBCRm2DFaE8EmHT1FM3jjYX8O17MMntMPmWODr5BAAIQOA4BRORxYoWnOxG45aTrhx9+OH377benn3/++dGj+emnn05v3rw5ff78+dFt3SDa0PE333xz4Y98k4+6pjre5LtY+PX999/7EvsNCdwy/zZ0E9MHIUA+HSRQuAkBCEAgOQFEZPIA4d7+BG456comIl++fHl6/fr1RCxKOKpM1ywi5XcUlRaaCMnt8/OW+be9t/SQnQD5lD1C+AcBCEDgGAQQkceIE17uSGBp0qVVwVevXp1X57T3KmG5aqdzbaWI/O677+5X9nTN4sz1ZU+rjxJzesWVSAk4+aaXBZ7bSwSq3HaML9rw8d3d3SmKQR2rzP3aZqwje27vMbsP9rclsJR/t+0JayMQIJ9GiDJjhAAEILA9AUTk9ozp4eAEapMuiysLNYksiUKJq7iKp3J/hFV1fez6wmNB9unTp/N126yJSF2PolX96mWfdDy3uR/Z9fH79+/vfVL7t2/fnsWnRWQ5njm7lG1HoJZ/2/WI5Z4JkE89R5exQQACEGhHABHZjjU9HZRAbdJlEXZtJS4KRx9/+fJlIhaNxiLwmoh0fe8tSN1e53Nb9NnH//Vf/3W/6qgyicj//u//npTFFdA5u5RtR6CWf9v1iOWeCZBPPUeXsUEAAhBoRwAR2Y41PR2UQG3SVa4GxuFpJVDt/PLqo0WkVhy1kmix6LYWgS6vrUS6nu1rH1ci3d52vbdwjCuROlZbtbEYLfuNK6u2xb4NAcWWDQK3IkA+3YokdiAAAQiMTYDZydjxZ/QrCNQmXVGQRTMSY/GjpjovReTalUj1YQEX+5PYs031bfFncflYEan6WoGUTR1HEfn/2zt7JCuOpQ1bSMiVNqAdsAUsWIAM2AErIAJ7bIKQcSNuyGcBbAAPQybX48q9mIODgXu+eI/0zpfUdPWcU6e6p36ejug53fWTlfVkVimTOjOyzPR0U23UXp9c2xHI+d92IyJ5ZAL408jWZW4QgAAE9iNAErkfa0bqlEAu6FLyFE8Tndi9f//+Jol0AuaELyaUOv3TrcvJ4sePH4+Jmcsl0380J5dEWg/18XjnJpGSrXGc/EqmfydS+kme9dC7x7Gex0nwYxMCOf/bZDCEDk8AfxrexEwQAhCAwC4ESCJ3wcwgPRNYC7qcfKmNEzAnWCpT4qU/XOPfKYxJZGyntk78osz4V1JjEunE0eP6j+PkTjjNP8qIz9bFSWGaRKq/9NN4vt3WsvnchoB4c0GgFgH8qRZJ5EAAAhCYmwDRydz2Z/YnEMgFXf/5z38O3H8zOAEjTQoJ5PyvUBzdJieAP03uAEwfAhCAQCUCJJGVQCJmXAK5oOtf//rXgftfh3//+9/jGr+BmeX8rwHVUKFDAvhTh0ZDZQhAAAINEiCJbNAoqNQWAYKutuwxmzb432wW33a++NO2fJEOAQhAYBYCJJGzWJp5FhMg6CpGR8cKBPC/ChARcUMAf7pBwQMEIAABCFxAgCTyAnh0nYMAQdccdm51lvhfq5bpUy/8qU+7oTUEIACB1giQRLZmEfRpjgBBV3MmmUoh/G8qc28+Wfxpc8QMAAEIQGAKAiSRU5iZSV5CgKDrEnr0vZQA/ncpQfpHAvhTpMEzBCAAAQiUEiCJLCVHv2kIEHRNY+omJ4r/NWmWbpXCn7o1HYpDAAIQaIoASWRT5kCZFgkQdLVolXl0wv/msfUeM8Wf9qDMGBCAAATGJ0ASOb6NmeGFBAi6LgRI94sI4H8X4aNzQgB/SoDwCgEIQAACRQRIIouw0WkmAgRdM1m7vbnif+3ZpGeN8KeerYfuEIAABNohQBLZji3QpFECBF2NGmYStfC/SQy90zTxp51AMwwEIACBwQmQRA5uYKZ3OQGCrssZIqGcAP5Xzo6etwngT7eZUAIBCEAAAucTIIk8nxk9JiNA0DWZwRubLv7XmEE6Vwd/6tyAqA8BCECgEQIkkY0YAjXaJUDQ1a5tZtAM/5vByvvNEX/ajzUjQQACEBiZAEnkyNZlblUIEHRVwYiQQgL4XyE4ui0SwJ8WsVAIAQhAAAJnEiCJPBMYzecjQNA1n81bmjH+15I1+tcFf+rfhswAAhCAQAsESCJbsAI6NE2gZo8GehEAACAASURBVND14cOHw4sXLw7fvn07e86fPn06PH/+/HB9fX12X3XQmBpb80lvlX/8+PHw6NGjW/q5n+qkgy/NJcp5+/atq/isSKCm/1VUC1GdEsCfOjUcakMAAhBojABJZGMGQZ32CNQMuu4ziYxklQw+efLku6TQZc+ePbtVrrLYXvOISaUTTRLJSLnOc03/q6MRUnomgD/1bD10hwAEINAOAZLIdmyBJo0SWAu6dCr49OnT44mcPn1KmJ7S6V1XmkReXV3dnOapzsmY20ueTh+V4OmOJ5FK2KSbbid07q+kT+WWk6J1wqhPX5b/5s2bQ0wG9awy6+ExYhvJcH8zsFw+LyOw5n+XSab3jATwpxmtzpwhAAEI1CdAElmfKRIHI5ALupxMOVFTUqWkME3QVO6vsKqtn91euJyAff78+VhvmbkkUvUxadW4uq2TnteuVMeow7t37250lLyXL18ek1EnkUt918ai7jICOf+7TCq9ZyWAP81qeeYNAQhAoC4Bksi6PJE2IIFc0OXE766Tt5g4+vnLly/fJYvG5iTwriTS7f3phNT99b52LSWCns9///vfm1NHlSmJ/N///vddWTwRXRuHussJ5PzvcslImJEA/jSj1ZkzBCAAgfoESCLrM0XiYARyQVd6GhinrZNA9fPt00cnkTpx1Emik0X3dRLo8txJpNtZvj7jSaT7W276uZZEakzJkgwnp6ke8fcjU9m81yUg23JBoBYB/KkWSeRAAAIQmJsA0cnc9mf2JxDIBV0+uUtPIpV8xa+a6j1NIk89iYzJXhxPyZ1lagpO9pxcXppEqr9OIDWGnmMS6THS0061UfuUxwmIabJCIOd/K12ogkCWAP6URUMFBCAAAQicQYAk8gxYNJ2TQC7oUrIUTxOd2L1///4miXTC5YQvJpQ67dOty8mi/jcbautyyfQfzcklkdZDfTzepUmkxtK4ToY1hn8nUvpKvvXSu8e13sdJ8aMKgZz/VRGOkOkI4E/TmZwJQwACENiEAEnkJlgROhKBtaDLyZbaOOFyQqUyJVr6QzX+HcKYRMZ2auvEL8qMfxU1JpFOHD2u/xhO7oQztYdkpV9JjfKtm5PCNImUPOmr8X27bToW75cREF8uCNQigD/VIokcCEAAAnMTIDqZ2/7M/gQCBF0nQKLJZgTwv83QTikYf5rS7EwaAhCAQHUCJJHVkSJwNAIEXaNZtK/54H992at1bfGn1i2EfhCAAAT6IEAS2Yed0PIeCRB03SN8hj5+XRgMEKhFgP2sFknkQAACEJibAEnk3PZn9icQIOg6ARJNNiOA/22GdkrB+NOUZmfSEIAABKoTIImsjhSBoxEg6BrNon3NB//ry16ta4s/tW4h9IMABCDQBwGSyD7shJb3SICg6x7hMzRfZ8UHqhJgP6uKE2EQgAAEpiVAEjmt6Zn4qQQIuk4lRbstCOB/W1CdVyb+NK/tmTkEIACBmgRIImvSRNaQBAi6hjRrN5PC/7oxVReK4k9dmAklIQABCDRPgCSyeROh4H0TIOi6bwvMPT7+N7f9a88ef6pNFHkQgAAE5iRAEjmn3Zn1GQQIus6ARdPqBPC/6kinFog/TW1+Jg8BCECgGgGSyGooETQqAYKuUS3bx7zwvz7s1IuW+FMvlkJPCEAAAm0TIIls2z5o1wABgq4GjDCxCvjfxMbfYOr40wZQEQkBCEBgQgIkkRManSmfR4Cg6zxetK5LAP+ry3N2afjT7B7A/CEAAQjUIUASWYcjUgYmQNA1sHE7mBr+14GROlIRf+rIWKgKAQhAoGECJJENGwfV2iBA0NWGHWbVAv+b1fLbzBt/2oYrUiEAAQjMRoAkcjaLM9+zCRB0nY2MDhUJ4H8VYSLqgD/hBBCAAAQgUIMASWQNisgYmgBB19DmbX5y+F/zJupKQfypK3OhLAQgAIFmCZBENmsaFGuFAEFXK5aYUw/8b067bzVr/GkrssiFAAQgMBcBksi57M1sCwgQdBVAo0s1AvhfNZQIOhz4OiteAAEIQAACVQiQRFbBiJCRCRDEj2zd9ueG/7Vvo540xJ96sha6QgACEGiXAElku7ZBs0YIEHQ1YohJ1cD/JjX8RtPGnzYCi1gIQAACkxEgiZzM4Ez3fAIEXeczo0c9AvhfPZZI4uus+AAEIAABCNQhQBJZhyNSBiZAED+wcTuYGv7XgZE6UhF/6shYqAoBCECgYQIkkQ0bB9XaIEDQ1YYdZtUC/5vV8tvMG3/ahitSIQABCMxGgCRyNosz37MJEHSdjYwOFQngfxVhIoq/zooPQAACEIBAFQIkkVUwImRkAgTxI1u3/bnhf+3bqCcN8aeerIWuEIAABNolQBLZrm3QrBECBF2NGGJSNfC/SQ2/0bTxp43AIhYCEIDAZARIIiczONM9nwBB1/nM6FGPAP5XjyWS+Ous+AAEIAABCNQhQBJZhyNSBiZAED+wcTuYGv7XgZE6UhF/6shYqAoBCECgYQIkkQ0bB9XaIEDQ1YYdZtUC/5vV8tvMG3/ahitSIQABCMxGgCRyNosz37MJEHSdjYwOFQngfxVhIoq/zooPQAACEIBAFQIkkVUwImRkAgTxI1u3/bnhf+3bqCcN8aeerIWuEIAABNolQBLZrm3QrBECBF2NGGJSNfC/SQ1fadqvX78+PHz48PD7778fJdqf9K5y1XNBAAIQgAAEziVAEnkuMdpPR8BB13QTZ8JNEMD/mjBDt0p8/fr18ODBg8NPP/10+OWXX45fZ/3555+P7ypXPRcEIAABCEDgXAIkkecSo/10BAjipzN5UxPG/5oyR5fKvHr16vDDDz8cE0j5k269q5wLAhCAAAQgUEKAJLKEGn2mIkAQP5W5m5ss/tecSbpTSKeNP/7443dJpN45hezOlCgMAQhAoBkCJJHNmAJFWiVAEN+qZebQC/+bw85bzzKeRnIKuTVt5EMAAhAYnwBJ5Pg2ZoYXEiCIvxAg3S8igP9dhI/O/xCIp5GcQuIWEIAABCBwKQGSyEsJ0n94AgTxw5u46Qnif02bpyvldBqpP6bD70J2ZTaUhQAEINAkAZLIJs2CUi0RIIhvyRrz6YL/zWfzrWas08jffvuN34XcCjByIQABCExEgCRyImMz1TICBPFl3OhVhwD+V8bx8ePH3/0hGXHkhkHOB+QvXBCAAAQgcDoBksjTWdFyUgIE8ZMavpFp439lhoBbGbdZe+Evs1qeeUMAAqUESCJLydFvGgIEF9OYusmJ4n9lZoFbGbdZe+Evs1qeeUMAAqUESCJLydFvGgIEF9OYusmJ4n9lZoFbGbdZe+Evs1qeeUMAAqUESCJLydFvGgIEF9OYusmJ4n9lZoFbGbdZe+Evs1qeeUMAAqUESCJLydFvGgIEF9OYusmJ4n9lZoFbGbdZe+Evs1qeeUMAAqUESCJLydFvGgIEF9OYusmJ4n9lZoFbGbdZe+Evs1qeeUMAAqUESCJLydFvGgIEF9OYusmJ4n9lZoFbGbdZe+Evs1qeeUMAAqUESCJLydFvGgIEF9OYusmJ4n9lZoFbGbdZe+Evs1qeeUMAAqUESCJLydFvGgIEF9OYusmJ4n9lZhmR24cPHw6a19KtulMvtX3x4sXh27dvp3YZvt2I/jK80ZggBCBwrwRIIu8VP4P3QIDgogcrjasj/ldm29G5XV1dHXRz1SEwur/UoYQUCEAAAv9PgCTy/1nwBIFFAgQXi1go3IkA/lcGenRuaRL56dOnw5MnT47306dPD9fX1weVPXr06Hhy6TLRjCeRkvPy5cubdvGEMte/zCJt9xrdX9qmj3YQgECPBEgie7QaOu9KgOBiV9wMlhDA/xIgJ76Ozm0piVTC6K+1KolU4uh3tXeCmCaRTjCdNKre/d++fXskHvufaIKumo3uL10ZA2UhAIEuCJBEdmEmlLxPAgQX90mfsfG/Mh8YndtSEqmTSCWCupQIOjnUu8qfP39+TA7TJFKydOl3JJVoqj62d/8o/9hhoB+j+8tApmIqEIBAIwRIIhsxBGq0S4Dgol3bzKAZ/ldm5dG5LSWRThJFTImgGMRbJ5VKDtMk0qeNMYlUm5iE6mRS8p2kllml3V6j+0u75NEMAhDolQBJZK+WQ+/dCBBc7IaagRYI4H8LUE4oGp3bKUmkv76a4jolieQkMqXGOwQgAAEIRAIkkZEGzxBYIDB6MLowZYoaIoD/lRljdG53JZH+nUYljLp02uiTxVOSSPf3KaXGyyWlZRZqq9fo/tIWbbSBAARGIEASOYIVmcOmBAguNsWL8DsI4H93AMpUj87triRSWHSa6L/O6q+yqvyUJDLt7wQ0g7v74tH9pXsDMQEIQKA5AiSRzZkEhVojQHDRmkXm0gf/K7M33Mq4zdoLf5nV8swbAhAoJUASWUqOftMQILiYxtRNThT/KzML3Mq4zdoLf5nV8swbAhAoJUASWUqOftMQILiYxtRNThT/KzML3Mq4zdoLf5nV8swbAhAoJUASWUqOftMQILiYxtRNThT/KzML3Mq4zdoLf5nV8swbAhAoJUASWUqOftMQILiYxtRNThT/KzML3Mq4zdoLf5nV8swbAhAoJUASWUqOftMQILiYxtRNThT/KzML3Mq4zdoLf5nV8swbAhAoJUASWUqOftMQILiYxtRNThT/KzML3Mq4zdoLf5nV8swbAhAoJUASWUqOftMQILiYxtRNThT/KzML3Mq4zdoLf5nV8swbAhAoJUASWUqOftMQePz48UEBBjcM7sMH5H9c5xP49ddfWbPsWyf7gPyFq18C/Hea/z6f899n/rtaZ62TRNbhiBQIQGCBwNevXw+//fbbQZ9cENiTgAIKLgicSgB/OZVUm+2wX5t2aVUr/KWOZfivbB2OSIEABBYIvHr16vDgwYODPrkgsCcBgoQ9afc/Fv7Stw2xX9/221t7/KUOcZLIOhyRAgEIJAR0+vjjjz8ev06mT04jE0C8bkqAIGFTvMMJx1/6Nin269t+e2uPv9QhThJZhyNSIACBhIBOH3/44YdjEqlPTiMTQLxuSoAgYVO8wwnHX/o2Kfbr2357a4+/1CFOElmHI1IgAIFAIJ5CarPWzWlkAMTj5gQIEjZHPNQA+Evf5sR+fdtvb+3xlzrESSLrcEQKBCAQCMRTSG3WujmNDIB43JwAQcLmiIcaAH/p25zYr2/77a09/lKHOElkHY5IgQAE/iGgU0j9MZ2HDx8efv7552MC+csvvxx++umnYzm/G4mr7EGAIGEPyuOMgb/0bUvs17f99tYef6lDnCSyDkekQAAC/xB4/fr1MYH8/fffjyXerPWuxFL1XBDYmoD9butxkD8GAfylbztiv77tt7f2+Esd4iSRdTgiBQIQyBBgs86AoXhTAlv73YcPH46n7I8ePTp8+vRp07mcIvzq6uqoj+bt++nTp4fr6+tTun/XxrJevHhx+Pbt23d1o75s7S+jcmtlXr3aT3uH9hCvWX+Wrt1T7aF1rfWtfSx3Sbfnz58X7SE5ma2U9+ovrfCzHiSRJsEnBCCwCQE2602wIvQOAlv73du3bw+6W7mU+OmOl/RLy2L90rOCy5cvXzaRGC/pt1XZ1v6yld7I/ZtAr/ZTovbkyZPp1tt9+22v/nLf3NLxSSJTIrxDAAJVCbBZV8WJsBMJ5PzO/7r+5s2bWyeJ+ld5BXQ6GfApnE8cJc9lSs70rttJ2lI7qRrL4+lCrtwnBJavdrocbEo/yfnrr7+OpwQq17WURKqvdP7y5cvx89mzZ0edVb40zqllxwH/GdN6moN1WSqXrj51SVmk3D3GXp/Sl6tfAr3az+va6zhawOvRe4C+VaCTQbdVudeZ9yb3iWtdMrU+3Tau/yhba1JtvDY1TjyJXBov6tvTc6/+0hpjds3WLII+EBiMAJv1YAbtZDo5v1NgpETGSY8SQgdgCpJU5yDNbWPQFfv5We18muAgTnVp0KexdOfKhVb9lvSJuiyZQP2sj+tdFnWKdUvjuK2DS8tQv8hHz+6vPj69zJVrzgpONX9dkuv+Ua712/sz5y9768F4ZQR6tV/cO5ZmrnWjdaJPrR2tFV2xn9es1lR8tjz1U537KTH8/PnzUa7kuY9lu73GcBIZ9x+3t0yP09Nnr/7SGmOSyNYsgj4QGIwAm/VgBu1kOjm/i8GXphITOgVR/ld41endiY7fXe9AS+V6TtvpXYFaPDlQW11xzH+Kjh8OzhzM+V3yU71jPz0roNOc422dohy19fvSOLFOemq+aTu967b8qEuuPAakah/noz7mGmXt+Zzzlz11YKxyAr3aT+vAp/Nx7cYETetD/0ilf6jR+tSV23P8rQPV64rr+Vjwz49Ynq5Nt4vl6bpuYc1az5LPXv2lZK5b9iGJ3JIusiEAgWNQCwYI7E0gFyTEwEg6xYQuDZTSQC32VZ0DPT3HAFDPTorUx0FiTLqWytOkTfppDMmPYy+xVDvrk9bHgNFzjslhHCe2tT7p3KSPrjhvl+XK06BzjftR+M4/cv6ysxoMV0igV/tpXftbDLmpxzXpNnHteX1qTccTRrX1Gtb6i1eUma5Nt4t7jsZL9y+fUrp9T5+9+ktrjEkiW7MI+kBgMAJs1oMZtJPp5PwuDdrie5pELr07OVRQ5aQtPq/hybVzeQzsJMfvqo8B3dIY5ySRluvA0u8ax8+qi4ne0pgui31cps9Ynuq/xj3K2Os55y97jc84lxHo1X5xHeQIaF3qd7iVxGlN6vKekfaJa0516bvbx/J0bbpNLF/bC92+p89e/aU1xiSRrVkEfSAwGAE268EM2sl0cn6nwEgngwrCdOnT/8KeBkpuq3IHXUuJo9rF0wS1kcyPHz/e/E6Rx9J4MTiL5Xp2X42ncf07mmkftY3XOUmk+uXG8Tw1ttupra7IIwax6uPficyV+0RE9Zab435ssPOPnL/srAbDFRLo1X7p3pFOX/X+GqvWZFyLS3uOv87q9St5cW/weNqbtP7UzmvTfbRG0/0rrn3vEdYl1bmH9179pTW2JJGtWQR9IDAYATbrwQzayXRyfqdgSF/DUpCkNj5Z1LQURDmx8TRVpna6Y11MltzX7aJMtXN52n+p3AGa6xzYWW+fROgz/r5lDBStuz8t07JU7rJ0HJe7rd/dzkngueUa04GoZEVGGiuysd57fkonrn4J9Gq/uCa8xvSpfzz6888/v1vjso7Wudeg1o37eD15XXr9qo/L3FZ1LnO7qIdlpXtOHO++1+ulnioWXJcTgOLlDJEAAQisEGCzXoFD1WYEcn6XBkabKYDgrgjk/KWrSUysLPab2PgFU8dfCqAtdCGJXIBCEQQgUI8Am3U9lkg6nUDO70giT2c4U8ucv8zEoOe5Yr+erbe/7vhLHeYkkXU4IgUCEMgQYLPOgKF4UwL43aZ4hxOOv/RtUuzXt/321h5/qUOcJLIOR6RAAAIZAmzWGTAUb0oAv9sU73DC8Ze+TYr9+rbf3trjL3WIk0TW4YgUCEAgQ4DNOgOG4k0J4Heb4h1OOP7St0mxX9/221t7/KUOcZLIOhyRAgEIZAiwWWfAULwpAfxuU7zDCcdf+jYp9uvbfntrj7/UIU4SWYcjUiAAgQwBNusMGIo3JYDfbYp3OOH4S98mxX59229v7fGXOsRJIutwRAoEIJAhwGadAUPxpgTwu03xDiccf+nbpNivb/vtrT3+Uoc4SWQdjkiBAAQyBNisM2Ao3pQAfrcp3uGE4y99m/TXX389yIbcMDjFB+QvXJcTIIm8nCESIACBFQIEZytwqNqMAH63GdohBeMvfZsV+/Vtv721x1/qECeJrMMRKRCAQIYAm3UGDMWbEsDvNsU7nHD8pW+TYr++7be39vhLHeIkkXU4IgUCEMgQYLPOgKF4UwL43aZ4hxOOv/RtUuzXt/321h5/qUOcJLIOR6RAAAIZAmzWGTAUb0oAv9sU73DC8Ze+TYr9+rbf3trjL3WIk0TW4YgUCEAgQ4DNOgOG4k0J4Heb4h1OOP7St0mxX9/221t7/KUOcZLIOhyRAgEIZAiwWWfAULwpAfxuU7zDCcdf+jYp9uvbfntrj7/UIU4SWYcjUiAAgQwBNusMGIo3JYDfbYp3OOH4S98mxX59229v7fGXOsRJIutwRAoEIJAhwGadAUPxpgTwu03xDiccf+nbpNivb/vtrT3+Uoc4SWQdjkiBAAQyBNisM2Ao3pRAid99+PDh8OLFi8O3b9/O1u3Tp0+H58+fH66vr0/qq3Zqr37ppfGlh/Th2odAib/soxmjnEKgV/tdXV0d3r59uzjFS/ajRYEU3hDo1V9uJtDIA0lkI4ZADQiMSoDNelTLtj2vvf2uZhLZNtkxtdvbX8akeH+z6tV+a0nk/dEcf+Re/aU1y5BEtmYR9IHAYATYrAczaCfTyfmdkz2d9KmNbp/4+V/+379//92JpPvo9NCnhGnf2CY+C5cCRbfXc5Tx6NGjw8ePH4/jPXv27NjO40sfy1rSV7J1iiHZkvPy5cvjWJ2YqCk1xZCrXwI5+921frTGvDb9LQSvzz/++OO4rlSvdeZ1/PTp05tvHLitZXgvSb9pEMdxf69dy1ebJ0+eHMeULt4Hvnz5ctwfPL7a69lXlK1yz8P1fN4mIIZclxOA4uUMkQABCKwQYLNegUPVZgRyfqegUgmXv0IWgy4FYwrAPn/+/N1XTR1ASlm1dwCn9pIlmQ5W06+zWqaCTd1K9NQ2BpkORC3X7+q7pq/qFHRanoJTy9gM7KCCc/4y6HSHm1bOfnetH61frTOvOa0fPzsZU73kax9wXdw/vObUzvtBBBzXusrVN/b3c9pf79LBSWTUx+NItta92lo3t4s68Pw9gZy/fN+Kt7sIkETeRYh6CEDgIgJs1hfho3MhgZzfxcRLoh2oKQDzs4M2BXcOzFQXAzb1jXWSu/Q7kZaptvGKgaXlOJj0u/qu6av2DmAlO32P4/G8TiDnL+u9qG2FQM5+a+snXZt6V0Kmf0RSIub1mK5trTnVre0HkUtc67Fcz5alZ4+v9n6PSaT1ifKW5kASecS3+iPnL6udqLxFgCTyFhIKIACBmgTYrGvSRNapBHJ+lwaEMQiLz07IYnsHjZIdb7WN7VIdVe/2S4FgTBrVN76ncqOOCkBJIlPaZe85fymTRq+9CeTst7Z+tBZjwuW2TiK11nS53MmdE7+1/SCdv2To9FB6xjEtS+3j2o7v/kct6xOTyHQOqYxUD97/JpDzF/icR4Ak8jxetIYABM4kwGZ9JjCaVyGQ87s0IIxBV3x2u3fv3t0kajF4S5V0eweaab3eY3IYZcXytF0qN+qoAJIkcon0+WU5fzlfEj3ug0DOfmvrJ64l6az3eBKpd12pDCd+cQ2fM+e4bi3L48cE0/qtJZFuoz1kScY5es3UNucvMzGoMVeSyBoUkQEBCGQJsFln0VCxIYGc36UBYQzC4rMTO8lRuS8FfU7cJMu/U5XKdfsYMErm2u9EehyPrfdUbtRRdfxOpElf9pnzl8uk0nsvAjn73bV+vH695rS2/ez1mMqIiV9uP4jzTvtrT9CtK8qKa1t1fl9LIpXI8juRkfZpzzl/Oa03rUyAJNIk+IQABDYhwGa9CVaE3kEg53dpQOdATYFjfJZ4BXoK0OLpogNMydftYDDKjc+59i5XEOu/zqrxdblO71GW6pZ0lB7S882bNzcJ7lEQP04mkPOXkwXQ8F4J5Ox31/rRelJf3T4FjOtPk0plxMTPbS3D+0F6Sqlyt/E4ku1yfaZr2+9rSaRkeA7aS/QXZaP8ezVKw4PLFlyXE4Di5QyRAAEIrBBgs16BQ9VmBGbzOwezDmI3Azuo4Nn8ZTQzYr+/LRpPRkezcc354C91aJJE1uGIFAhAIEOAzToDhuJNCczgdz6B0Fx1K4DkKiMwg7+Ukemj16z20ympTiC9B3AKeZq/zuovp9E5vRVJ5OmsaAkBCBQQYLMugEaXiwngdxcjnEoA/tK3ubFf3/bbW3v8pQ5xksg6HJECAQhkCLBZZ8BQvCkB/G5TvMMJx1/6Nin269t+e2uPv9QhThJZhyNSIACBDAE26wwYijclgN9tinc44fhL3ybFfn3bb2/t8Zc6xEki63BECgQgkCHAZp0BQ/GmBPC7TfEOJxx/6duk2K9v++2tPf5ShzhJZB2OSIEABDIE2KwzYCjelAB+tyne4YTjL32bFPv1bb+9tcdf6hAniazDESkQgECGAJt1BgzFmxLA7zbFO5xw/KVvk2K/vu23t/b4Sx3iJJF1OCIFAhDIEGCzzoCheFMC+N2meIcTjr/0bVLs17f99tYef6lDnCSyDkekQAACGQJs1hkwFG9KAL/bFO9wwvGXvk2K/fq2397a4y91iJNE1uGIFAhAIEOAzToDhuJNCeB3m+IdTjj+0rdJsV/f9ttbe/ylDnGSyDockQIBCGQIsFlnwFC8KQH8blO8wwnHX/o2Kfbr2357a4+/1CFOElmHI1IgAIEMATbrDBiKNyWA322Kdzjh+EvfJsV+fdtvb+3xlzrESSLrcEQKBCCQIcBmnQFD8aYE8LtN8Q4nHH/p26TYr2/77a09/lKHOElkHY5IgQAEMgTYrDNgKN6UAH63Kd7hhOMvfZsU+/Vtv721x1/qECeJrMMRKRCAQIYAm3UGDMWbEsDvNsU7nHD8pW+TYr++7be39vhLHeIkkXU4IgUCEMgQYLPOgKF4UwL43aZ4hxOOv/RtUuzXt/321h5/qUOcJLIOR6RAAAIZAmzWGTAUb0rgVL/78OHD4enTp4fr6+uDnl+8eHH49u3bprohvD0Cp/pLe5rPodHr168PX79+zU4W+2XRHCs+ffp0eP78+XGfW295fu2a7LW680eq1wN/qcOSJLIOR6RAAAIZAmzWGTAUb0rgVL+LSeSmCiG8aQKn+kvTkxhYuYcPHx4ePHhwePXq1WIyif3Wjb9lAyzXFAAAERdJREFUMrel7PVZldfiL+XsYk+SyEiDZwhAoDoBNuvqSBF4AoE1v1PQ8+jRo4PaXF1dLZ5E6mRSJ5Rq43YaVuX6F33J0KVTS51eup2SUl0OrJbq0hPPt2/fHvWwrD/++ONGP9dJvk9MjwPwoyoB8eVql8Dvv/9+UCL5ww8/HH788cdbyeSa/bTevD613v1tA5U/efLkuNZU9v79+5s6kfDay63Lu2h5nb98+fI4vtavyrz3SL4ut/M3IDyu66x7uv41F9dJhvXUs664V3k/UpkujeG+0sf7mWQ+e/bsWGc9rKflu5/K4z4p/f78888jU3H1u09ApZeedUtGHDfKdhvP46hw5R8an+tyAlC8nCESIACBFQJs1itwqNqMQM7vHPQ4MFpKIr98+XIMJt1GAZaCIgdaUWn1161LQY8DI7XVs2WoTQxe/ax+aqN6B1KukzzNQ/Wus7yoA8+XE8j5y+WSkVCLwM8//3yT+KTJZM5+Xu9aS15DcX15vUpHtXGd3tN16SRubT+Ic/X6jWNbhsri89K40l0Jlfcd6eP1b900nurV7vPnz0f9JVtX7O82Kotjq13cw+I+dRQSfsQxJUc66zPK1rOYWodYpzLZSZ+2hcbTJdlmENuF4as+5vyl6iATCCOJnMDITBEC90ng8ePHN//h18bNDYO9fGDJ72NQo/r4ruDFgUzsG4OxtFyBoPrpcmCkd8mNiWeUHZ/Vz8GZ++tdV9RN7wq4XHdswI9qBPbyScapu//pK66//fbb8b8rS86QrrX4rmcncuob6/SeW5eqO2UtpvJjn7i2c+Pm9h3vE+oXr7Q89o/jxT569jz1LB11L12xXayPsvUc971Yl/KwvFTv9D2OVetZ65DrcgJQvJwhEiAAAQhAoDECuSAhDWTSIMdJpNrFgD+eWHiqCtIUhMZ2elZwFOWqveRF2X5WXS6YSmXEINQ68FmHQM5f6khHSg0Cv/zyy81aO/UkUmsrrrW1dRjrpG9uXarulLWYyot94tpO23lcjaN22nvkn56H9x31i1eafOWSSLeL+5YTx6hjlO1n1bufx49zic/qE99z80znY/0s32PX/GS916FJElmHI1IgAAEIQKAhArkgIQY1Uje+O8jR18LiCWMMxuIUc+WpXL1btgKk+Kw6BWa60+Ap6uZ2CjC56hPI+Uv9kZBYQkC/E/nTTz+d/TuR6VqL7/FZOqXv6br02vM69XtuPkvy3Ceu7aV2Gju91Hdpn3A76yV5ujSGTwXjeJLjhFTtLFfPkm8dj0IyP+LeF2XHZ3WN7+k8PW6qd/qeUeGiYtb7RfhuOpNE3qDgAQIQgAAERiGQCxIcoDhQUtDkr7Q5yEmTSLVdOokUK/XXrUsBk38fKAZPqrNsja9ny/O/wkuGdVO95el3ndRGl9pY72MBP6oRyPlLtQEQdBGB0r/O6vWlNeX15QQqrkkpd9e6dD+tbSdna5NK5cf1G/eH3LixjcbR2vf6lyzduqzPx48fj8mhy+O+FWWp3HMxH/fRp8dI5xbr1E8y9Bllx2fr5j0s5aFxPG7USe20HvW51cV6r0OWJLIOR6RAAAIQgEBDBNaCBAU6/orYmzdvboKhGOQoqJEM3fprqQqYVK+gKf6xCwembusALA2momxhUvCkPkpgpYPeLcvBUyojBnENoR5CFdmCq10Cl/x/IrWeZF+tea9lrbV0TWr2a+vSdZLlNbpGLJUf1+/S2k73A8mO+5ATP5V7r1CfqE+6t3mviuM5cfR47969u0kqo47m4T0t9otjulx7mf46q5NG9Y/jpjwkV+Ol89Ffs/V+e6zc4If057qcABQvZ4gECEAAAhBojABBQmMGaVwd/KVxA92h3qn2U9LixOUOkTfVTthOSRxvOvFQTECJ5yknvcUDHA7HxPuS/vT9mwBJJJ4AAQhAAALDETg1qBxu4kyoiAD+UoStmU45+8WTObWJp3mnKp9LIlPZku+7ZJxT9RmxnRJ7s9Pn1gm7xuC6nAAUL2eIBAhAAAIQaIwAQUJjBmlcHfylcQPdoR72uwMQ1d8RwF++w1H8QhJZjI6OEIAABCDQKgGChFYt06Ze+EubdjlVK+x3KinaiQD+UscPSCLrcEQKBCAAAQg0RIAgoSFjdKAK/tKBkVZUxH4rcKi6RQB/uYWkqIAksggbnSAAAQhAoGUCBAktW6c93fCX9mxyjkbY7xxatMVf6vgASWQdjkiBAAQgAIGGCBAkNGSMDlTBXzow0oqK2G8FDlW3COAvt5AUFZBEFmGjEwQgAAEItEyAIKFl67SnG/7Snk3O0Qj7nUOLtvhLHR8giazDESkQgAAEINAQAYKEhozRgSr4SwdGWlER+63AoeoWAfzlFpKiApLIImx0ggAEIACBlgkQJLRsnfZ0w1/as8k5GmG/c2jRFn+p4wMkkXU4IgUCEIAABBoiQJDQkDE6UAV/6cBIKypivxU4VN0igL/cQlJUQBJZhI1OEIAABCDQMgGChJat055u+Et7NjlHI+x3Di3a4i91fIAksg5HpEAAAhCAQEMECBIaMkYHquAvHRhpRUXstwKHqlsE8JdbSIoKSCKLsNEJAhCAAARaJkCQ0LJ12tMNf2nPJudohP3OoUVb/KWOD5BE1uGIFAhAAAIQaIgAQUJDxuhAFfylAyOtqIj9VuBQdYsA/nILSVEBSWQRNjpBAAIQgEDLBAgSWrZOe7rhL+3Z5ByNsN85tGiLv9TxAZLIOhyRAgEIQAACDREgSGjIGB2ogr90YKQVFbHfChyqbhHAX24hKSogiSzCRicIQAACEGiZQEtBwrdv3w4vXrw4fPjwIYvs06dPh+fPnx+ur6+zbU6tkKxHjx4dxCDeT58+rSI/p8fe88zpUVLekr+U6D97nxL7aT1qXcpvz73OXa9a11rf6pdep6ybtA/vlxEo8ZfLRhyzN0nkmHZlVhCAAASmJjBzkKBA9cmTJ4sB69ROsTL5mf1lBUs3VXvbr2YS2Q3kgRTd218GQvfdVEgiv8PBCwQgAAEIjEBgLUhQAOiTOp/OpacB6cmBTi0kU7dPL9zn2bNnx3KfNF5dXd20VZnbuV6yNa5kefw0KF0aT3aJ5e6rco359u3bo+nWksglXeIJSZTf4jy38s01f9lqTOTWI5Czn9eVfFltdHsd6lPl79+/v1nT0sh9tE69XtK+sU18Vv+4/vUcZWjf+fjx43E87xseX/pY1pK+kq01Ll0k5+XLl8ex6lGcR5IYcl1OAIqXM0QCBCAAAQg0RiAXJDiBcyCpIM/Jkur0rE8Fa26jwM4new4IY3CoZ1/q53cHhJ8/fz7KlTz3t2y3d1uNrWcFibG9ZKouJnzqqzu9or5pnd5HmefS3ErLcv5SKo9++xLI2c9ryetE68jrXetLz1qf6bryGtann9Ve61IydauP1lK8LFPrXLcSPbWNa9d7gOX6XX3X9FWd9yHJ0z8iWUbUgee7CeT85e6etIgESCIjDZ4hAAEIQGAIArkgQYFaPMFLg0HVK1BT8KfgTpcCUAeeeneg+OXLl2O5A9QYDEaIsTwdz+1iueV7fOv8119/fRfsum/6KVkKdsUg3jHgHGGe6bwvec/5yyUy6bsfgZz9tBaceEmbuLb8HNdxXKtO1NROV6yL6zXO0jK9dl23lEQu7Rtr+qp9XMPpu8fi824COX+5uyctIgGSyEiDZwhAAAIQGIJALkhQkKe6ePt0QROPgaJBKFiL7fWsRDSeMKptGnS6f5Sp8WMS6zYxKNV4MWmNdXp2ghjbWI4+00A01vk56uSy3uZpvWt8yqZc/RLI2S+uHc0uJnnx2QlZbO/1nK59tY3tUmpxHelZ11ISqfF1xbWYyo06KoEkiTwiu/hHzl8uFjyZAHbNyQzOdCEAAQjMQCAXJMSgbImDgr43b94ckzgFfrpUFoM394vBn8rS96V2aZDoNrE81VHvS4lnTi/JiqcvHiN+jjDPOJ9Ln3P+cqlc+u9DIGe/uK6kSVxb8dnt3r17d7PWY+KXzsLtvUek9XqP+0GUFcvTdqncqGO63tP3JR0oWyaQ85fl1pTmCJBE5shQDgEIQAAC3RLIBQkK5pSQKTjTpUDMCZoCOH+NVfVOHFUekzKV6xTQX4OzLMlTXdrPf0hD7ZbGlyy18e9YaTydNqq9A07JTANM6a47vVJ9l+pHmGc6r0vec/5yiUz67kcgZ790zWhN+QQ/PnudSY7KfaXr2esylev2MbGTzLXfifQ4HlvvqdyoY1zX3ke813h8Pk8jkPOX03rTygRIIk2CTwhAAAIQGIbAWpCgYMxfCdWn3uNJgSEoQHOSpmBOMnU76YzBn/u4zG3Vz2V61hXHtyyVOYlUmzieg16VSx/LjuVR1yjfbfWpuf7555+3fq8y9o3jWrdUf+nhMsvfa54ae4tL8+Dql0DOfkvryutGPutnzVxryz5vEqmfez+IcuNzrr3LtQbjPyppHNdJnyhLdUs6aq7SU9+YIIm0pc77zPnLeVJoza6JD0AAAhCAwHAECBKGM+mmE8JfNsW7ufDZ7OfE00nt5oAHG2A2f9nKfCSRW5FFLgQgAAEI3BsBgoR7Q9/lwPhLl2a7UXoG++lUUvP0zSnkjfnPfpjBX86GUtCBJLIAGl0gAAEIQKBtAgQJbdunNe3wl9Yscp4+2O88XrO3xl/qeABJZB2OSIEABCAAgYYIECQ0ZIwOVMFfOjDSiorYbwUOVbcI4C+3kBQVkEQWYaMTBCAAAQi0TIAgoWXrtKcb/tKeTc7RCPudQ4u2+EsdHyCJrMMRKRCAAAQg0BABgoSGjNGBKvhLB0ZaURH7rcCh6hYB/OUWkqICksgibHSCAAQgAIGWCRAktGyd9nTDX9qzyTkaYb9zaNEWf6njAySRdTgiBQIQgAAEGiJAkNCQMTpQBX/pwEgrKmK/FThU3SKAv9xCUlRAElmEjU4QgAAEINAygcePH9/8KXwFDNwwWPMB+QtXvwRY76zvtfWd1rHe66x1ksg6HJECAQhAAAIQgAAEIAABCEBgCgIkkVOYmUlCAAIQgAAEIAABCEAAAhCoQ4Aksg5HpEAAAhCAAAQgAAEIQAACEJiCAEnkFGZmkhCAAAQgAAEIQAACEIAABOoQIImswxEpEIAABCAAAQhAAAIQgAAEpiBAEjmFmZkkBCAAAQhAAAIQgAAEIACBOgRIIutwRAoEIAABCEAAAhCAAAQgAIEpCJBETmFmJgkBCEAAAhCAAAQgAAEIQKAOAZLIOhyRAgEIQAACEIAABCAAAQhAYAoCJJFTmJlJQgACEIAABCAAAQhAAAIQqEOAJLIOR6RAAAIQgAAEIAABCEAAAhCYggBJ5BRmZpIQgAAEIAABCEAAAhCAAATqECCJrMMRKRCAAAQgAAEIQAACEIAABKYgQBI5hZmZJAQgAAEIQAACEIAABCAAgToESCLrcEQKBCAAAQhAAAIQgAAEIACBKQiQRE5hZiYJAQhAAAIQgAAEIAABCECgDgGSyDockQIBCEAAAhCAAAQgAAEIQGAKAiSRU5iZSUIAAhCAAAQgAAEIQAACEKhDgCSyDkekQAACEIAABCAAAQhAAAIQmIIASeQUZmaSEIAABCAAAQhAAAIQgAAE6hAgiazDESkQgAAEIAABCEAAAhCAAASmIEASOYWZmSQEIAABCEAAAhCAAAQgAIE6BEgi63BECgQgAAEIQAACEIAABCAAgSkIkEROYWYmCQEIQAACEIAABCAAAQhAoA4Bksg6HJECAQhAAAIQgAAEIAABCEBgCgIkkVOYmUlCAAIQgAAEIAABCEAAAhCoQ4Aksg5HpEAAAhCAAAQgAAEIQAACEJiCwP8B4VwT+/jD09gAAAAASUVORK5CYII=;" vertex="1" parent="uuffBCwRQU14lShZG_Nr-33">
          <mxGeometry x="45" y="40" width="291.74" height="221.44" as="geometry" />
        </mxCell>
        <mxCell id="uuffBCwRQU14lShZG_Nr-49" value="Mobile interface" style="swimlane;" vertex="1" parent="1">
          <mxGeometry x="1440" y="50" width="490" height="380" as="geometry" />
        </mxCell>
      </root>
    </mxGraphModel>
  </diagram>
</mxfile>
